<?xml version="1.0"?><svg width="1440" height="900" xmlns="http://www.w3.org/2000/svg" xmlns:xlink="http://www.w3.org/1999/xlink">
 <title>blue camper van</title>
 <defs>
  <linearGradient id="linearGradient3845">
   <stop stop-color="#e8b700" offset="0" id="stop3847"/>
   <stop stop-color="#e2b500" id="stop3849" offset="0.456743"/>
   <stop stop-color="#ae9c00" offset="1" id="stop3851"/>
  </linearGradient>
  <linearGradient id="linearGradient3833">
   <stop stop-color="#ffffff" offset="0" id="stop3835"/>
   <stop stop-color="#ffffff" stop-opacity="0" offset="1" id="stop3837"/>
  </linearGradient>
  <linearGradient id="linearGradient3780">
   <stop stop-color="#e8b700" id="stop3782" offset="0"/>
   <stop stop-color="#e2b500" offset="0.456743" id="stop3788"/>
   <stop stop-color="#ffe400" id="stop3784" offset="1"/>
  </linearGradient>
  <linearGradient id="linearGradient3745">
   <stop stop-color="#575757" id="stop3747" offset="0"/>
   <stop stop-color="#575757" stop-opacity="0" id="stop3749" offset="1"/>
  </linearGradient>
  <linearGradient id="linearGradient3289">
   <stop stop-color="#ffffff" offset="0" id="stop3291"/>
   <stop stop-color="#e4e4dc" offset="1" id="stop3293"/>
  </linearGradient>
  <linearGradient id="linearGradient7216">
   <stop stop-color="#000047" id="stop7218" offset="0"/>
   <stop stop-color="#00ccff" id="stop7220" offset="1"/>
  </linearGradient>
  <radialGradient gradientUnits="userSpaceOnUse" gradientTransform="matrix(-0.776292,0.7970252,-0.3939025,-0.3836558,4785.4179,786.39497)" r="188.76959" fy="1880.043" fx="2277.1394" cy="1880.043" cx="2277.1394" id="radialGradient7224" xlink:href="#linearGradient7216"/>
  <linearGradient y2="0.084192" x2="0.484253" y1="0" x1="0.481633" id="linearGradient3287" xlink:href="#linearGradient3289"/>
  <linearGradient y2="0.706314" x2="0.419882" y1="0.218944" x1="0.418446" id="linearGradient3751" xlink:href="#linearGradient3745"/>
  <linearGradient y2="0.688248" x2="0.445732" y1="0.291188" x1="0.408522" id="linearGradient3755" xlink:href="#linearGradient3745"/>
  <radialGradient gradientUnits="userSpaceOnUse" gradientTransform="matrix(1.2567188,-0.53039247,0.58147942,1.3777648,-425.39663,129.92852)" r="17.314945" fy="471.40961" fx="581.01392" cy="471.40961" cx="581.01392" id="radialGradient3786" xlink:href="#linearGradient3780"/>
  <linearGradient y2="0.704363" x2="0.612027" y1="0.20892" x1="0.672872" id="linearGradient3792" xlink:href="#linearGradient3745"/>
  <radialGradient r="17.314945" fy="471.40961" fx="581.01392" cy="471.40961" cx="581.01392" gradientTransform="matrix(0.87211346,-0.36124343,0.40352387,0.93837772,-116.75155,240.62756)" gradientUnits="userSpaceOnUse" id="radialGradient3843" xlink:href="#linearGradient3845"/>
  <filter height="1.18703" y="-0.093515" width="1.200397" x="-0.100199" id="filter3863">
   <feGaussianBlur id="feGaussianBlur3865" stdDeviation="0.619973"/>
  </filter>
  <filter id="filter3889">
   <feGaussianBlur id="feGaussianBlur3891" stdDeviation="7.071968"/>
  </filter>
 </defs>
 <metadata id="metadata7">image/svg+xml</metadata>
 <g>
  <title>Layer 1</title>
  <path fill="#ffffff" fill-rule="nonzero" marker-start="none" marker-mid="none" marker-end="none" stroke-miterlimit="4" stroke-dashoffset="0" opacity="0.5" filter="url(#filter3889)" id="path8114" d="m633.884094,204.083649c-60.588806,0.615448 -121.408508,5.548279 -180.540771,19.141037c-17.604492,4.769562 -34.402161,13.921829 -46.261505,27.967133c-1.946442,0.548172 -4.054474,0.016342 -5.98468,0.739563c-1.587463,0.326233 -3.13858,0.815216 -4.661133,1.372086c-0.289978,4.571503 -0.976715,9.15387 -0.564392,13.740295c-13.25415,23.893585 -26.353027,48.248962 -39.508179,71.961334c-0.772858,-5.020111 -1.841187,-10.737183 -6.072205,-14.022491c-5.998657,-4.27594 -14.461792,-3.682983 -20.707794,-0.311371c-5.381927,3.336945 -7.72052,10.230682 -6.626892,16.270355c-4.165802,2.376892 -6.597137,7.223633 -7.113403,11.920593c-0.689148,5.456482 1.728577,11.227295 6.509155,14.088562c2.114563,1.303162 3.750946,3.450806 3.883636,5.947723c0.801849,4.577118 0.274475,9.333191 0.347839,13.937958c-1.423462,3.901337 -2.741577,8.064819 -1.933929,12.267822c0.361633,4.61673 -0.200989,9.351776 0.690826,13.895996c0.994904,3.016632 3.668945,5.306244 6.695007,6.081909c0.858673,0.522949 2.367493,0.904846 1.722382,2.228485c-0.046539,4.918365 -2.679321,9.115601 -5.066162,13.187988c-17.086639,34.028381 -19.284729,74.978516 -7.165802,110.941681c-9.789948,-2.296448 -20.626099,6.202942 -20.016815,16.387146c-0.924377,11.953857 2.924377,23.634155 2.519318,35.54718c-1.531219,5.404419 -4.338562,10.657776 -3.699707,16.445862c0.282898,9.236816 5.008514,17.631348 10.590393,24.717041c-0.063538,4.312988 0.223267,8.764038 2.345123,12.601746c3.103973,6.112854 9.79776,10.550049 16.805603,9.760315c4.999847,-0.357605 9.954437,-1.415405 14.84967,-2.442505c2.028168,-0.781555 4.231384,-0.814026 6.159698,0.194641c6.636597,2.061646 13.515778,3.230591 20.260132,4.797363c5.887451,19.125427 18.373993,36.921753 36.423431,46.212952c17.494202,9.022583 37.769379,10.443542 57.16037,9.516907c14.036591,-0.162109 28.845764,-2.332214 40.393738,-10.820923c9.801849,-6.82843 17.975189,-15.817871 24.191437,-25.991638c35.459717,0.497314 71.132019,0.69873 106.302368,-4.359619c5.473267,20.190247 18.207153,39.072815 36.95166,48.9375c17.323364,9.08667 37.463562,10.578064 56.729492,9.636536c13.938965,-0.080994 28.604431,-2.054016 40.269714,-10.264099c17.649109,-11.724854 29.356445,-30.528503 36.380066,-50.218384c4.741394,-13.121277 6.683533,-27.130371 7.942566,-40.937439c3.150818,-2.118164 5.677979,-5.178406 7.054993,-8.728821c55.399597,-12.686523 110.712952,-25.885498 166.138794,-38.369629c0.484253,16.800964 4.78717,34.323914 16.065979,47.156799c7.58197,8.288452 18.990967,11.68158 29.894043,12.717346c12.549927,1.572083 25.992432,2.867065 37.8927,-2.285583c10.660889,-4.94165 17.726563,-15.057068 22.918335,-25.271301c7.082031,-14.01355 10.89856,-29.660095 12.502808,-45.240173c14.848877,6.131714 30.520752,11.779175 46.82605,11.229736c9.959961,-1.544556 15.765503,-14.170349 10.966797,-22.897217c-0.603638,-1.218201 -1.393066,-2.363342 -2.345093,-3.33783c3.447021,-6.602417 4.117065,-14.704346 1.673706,-21.778198c1.996582,-3.311279 4.061279,-6.588318 5.157471,-10.324646c3.311646,-9.474365 2.078125,-21.196808 -5.40686,-28.411133c-3.219604,-3.300873 -7.287964,-5.737152 -11.700439,-7.04892c3.141113,-38.406342 -1.209351,-76.839111 -3.250977,-115.176758c-0.220581,-2.907837 -0.095581,-5.770782 0.429077,-8.62207c0.611206,-6.194031 -1.338501,-12.348969 -4.414673,-17.618103c-4.7948,-26.76947 -9.175293,-54.1073 -20.954224,-78.86557c0.075317,-4.330658 -1.424805,-8.882294 -5.040771,-11.463226c-2.740601,-1.952637 -6.259033,-2.55722 -8.778687,-4.899445c-13.526855,-9.440994 -29.351929,-14.862244 -45.024536,-19.671539c-28.842896,-7.957031 -58.708923,-11.112442 -88.352783,-14.533859c-46.340332,-4.481369 -92.811768,-7.403183 -139.246948,-10.689041c-67.645935,-4.294998 -135.411865,-7.120514 -203.205017,-6.948059z"/>
  <path fill="#cbcbcb" fill-rule="evenodd" marker-start="none" marker-mid="none" marker-end="none" stroke-miterlimit="4" stroke-dashoffset="0" d="m334.582306,349.910614l0.199799,-11.613068c-0.187195,-1.985016 0.327942,-3.645874 1.15509,-3.723877l6.494324,-0.612457c0.827026,-0.078003 1.643646,1.457245 1.830811,3.442261l3.261566,29.620056c0.187256,1.985016 -0.32785,3.645874 -1.155029,3.723846l-5.294678,0.537506l-6.597015,-13.229065l0.105133,-8.145203z" id="rect3643"/>
  <path fill="#cbcbcb" fill-rule="evenodd" marker-start="none" marker-mid="none" marker-end="none" stroke-miterlimit="4" stroke-dashoffset="0" d="m332.460022,358.387421c-2.990814,0 -4.801025,-1.596954 -4.801025,-3.59079l0,-1.206635c0,-1.993835 2.410065,-3.600494 5.400787,-3.600494l4.38739,0c2.293427,4.148376 0.990967,6.181519 0,8.397919c-0.360168,0.018951 -1.023468,0.024353 -1.727264,0.023468" id="rect3630"/>
  <path fill="#007fff" fill-rule="nonzero" marker-start="none" marker-mid="none" marker-end="none" stroke-miterlimit="4" stroke-dashoffset="0" id="path2387" d="m1135.287842,372.956848l-0.107056,0.009735l-311.958984,23.412994c0,0 -90.719177,7.485107 -125.949402,12.329285c-23.351807,3.210815 -49.7948,9.91272 -64.974487,14.061432l-3.230652,0.885559c-5.811035,1.617798 -9.293152,2.675995 -9.293152,2.675995c-37.111145,13.009583 -89.314819,43.969177 -101.72876,52.401886c-11.420532,7.757751 -40.95816,29.504517 -40.95816,29.504608l-0.17514,0.058411c-5.339172,14.395264 -83.632446,91.010132 -40.238007,69.187988c-19.289764,24.310059 4.476959,13.657349 38.437775,14.79126c0.023895,-0.036926 0.053284,-0.070557 0.07782,-0.106995c0.065399,-0.097595 0.125214,-0.19696 0.194641,-0.291992c0.012299,-0.016785 0.026489,-0.03186 0.03891,-0.048706c0.061768,-0.083191 0.129883,-0.161987 0.194641,-0.243225c0.072937,-0.091431 0.147034,-0.183594 0.223846,-0.272461c0.087036,-0.100769 0.180511,-0.204346 0.27243,-0.301758c0.120911,-0.128296 0.240631,-0.257202 0.369781,-0.379456c0.03479,-0.032959 0.071655,-0.064819 0.107025,-0.09729c0.101044,-0.092834 0.205627,-0.18335 0.311432,-0.272461c0.142578,-0.120178 0.286926,-0.237122 0.437897,-0.350342c2.421997,-1.816589 7.096191,-4.671997 8.417297,-5.332581c0.330292,-0.165161 0.672089,-0.233521 1.00238,-0.233521c0.990814,0 1.952301,0.613831 2.695496,1.109253c0.990784,0.660522 6.544037,4.351196 7.424835,5.176941c0.880676,0.825745 1.15799,2.257629 1.15799,2.257629c0,0 -1.931396,4.456238 -0.885559,7.814087c1.045959,3.357849 3.68808,3.629639 3.68808,3.629639c0,0 1.495392,6.666626 3.367004,12.776978c1.871582,6.110168 4.398376,11.33667 4.398376,11.33667l-0.009705,0.107117c0.004852,-0.004395 0.116821,-0.107117 0.116821,-0.107117c0,0 47.566345,3.080139 85.438843,0.437866l11.005859,-0.875732c0,0 41.987488,-3.474121 55.71051,-5.176941c0.473694,-0.058777 0.931946,-0.122314 1.391541,-0.184937c0.085266,-0.011597 0.168152,-0.017456 0.25293,-0.029236c0.371826,-0.05127 0.737061,-0.102356 1.099609,-0.155579c0.170776,-0.025146 0.327576,-0.05249 0.496277,-0.077942c0.708313,-0.106628 1.408386,-0.219849 2.08252,-0.33075c0.320496,-0.052795 0.621094,-0.102539 0.934143,-0.155762c0.077332,-0.013123 0.146973,-0.025757 0.223816,-0.038879c0.886047,-0.15155 1.750488,-0.298645 2.578796,-0.447693c0.340332,-0.061218 0.651733,-0.115295 0.982849,-0.17511c0.556641,-0.100586 1.083923,-0.197327 1.615295,-0.291992c0.691223,-0.123047 1.363647,-0.242493 2.014343,-0.350342c0.176025,-0.029114 0.362061,-0.059692 0.535217,-0.087524c0.013611,-0.002197 0.025269,-0.007568 0.03894,-0.009705c0.515747,-0.082581 1.016785,-0.155701 1.508362,-0.223816c0.15094,-0.020935 0.308533,-0.039001 0.457275,-0.058411c0.269653,-0.035095 0.535461,-0.067749 0.798035,-0.09729c0.296814,-0.033508 0.587524,-0.06189 0.875732,-0.087524c0.280762,-0.025146 0.554321,-0.05127 0.827148,-0.068237c0.026062,-0.001587 0.051819,0.001587 0.07782,0c0.26239,-0.015564 0.523193,-0.031555 0.778564,-0.038879c0.27124,-0.007874 0.544067,-0.011902 0.807617,-0.009705c0.21521,0.00177 0.432007,0.010498 0.642212,0.019409c0.21051,0.008911 0.417114,0.022461 0.622803,0.039001c0.170471,0.013611 0.338623,0.029541 0.506042,0.048584c0.173157,0.019775 0.345886,0.042358 0.515747,0.068115c0.025513,0.003906 0.052429,0.005676 0.07782,0.009827c0.036194,0.005676 0.070923,0.013428 0.107117,0.019409c0.183472,0.030457 0.365051,0.059204 0.544922,0.09729c0.013123,0.002808 0.025635,0.006897 0.038879,0.009705c0.222839,0.048035 0.43457,0.105164 0.652039,0.165405c0.232544,0.064514 0.464111,0.134827 0.690857,0.214172c0.163818,0.057251 0.325623,0.119507 0.486572,0.184814c0.127747,0.051758 0.253479,0.108398 0.379578,0.165405c0.002563,0.001221 0.006958,-0.00116 0.009644,0c0.15033,0.068237 0.299744,0.138306 0.447632,0.214172c0.201355,0.10321 0.396362,0.21283 0.593567,0.330872c0.016357,0.009705 0.032471,0.019287 0.048706,0.029114c0.155579,0.094116 0.313904,0.197998 0.467102,0.301697c0.052612,0.035645 0.10321,0.07019 0.155762,0.107056c0.11676,0.082092 0.234558,0.165039 0.35022,0.25293c0.053589,0.040771 0.102295,0.084534 0.155762,0.126526c0.0625,0.049255 0.122681,0.094971 0.184814,0.146057c0.176086,0.14447 0.352112,0.298157 0.525513,0.457336c0.199097,0.1828 0.397644,0.371277 0.593567,0.574097c0.046387,0.048096 0.094727,0.100769 0.146057,0.165466c0.003052,0.003845 0.006592,0.005798 0.009705,0.009705c0.04895,0.062195 0.1026,0.137695 0.15564,0.214111c0.002869,0.004028 0.006897,0.005615 0.009766,0.009705c0.109619,0.158508 0.215942,0.341431 0.340576,0.554626c0.009033,0.015564 0.020081,0.023193 0.029175,0.039001c0.131042,0.225952 0.274597,0.481567 0.418518,0.759033c0.001404,0.002686 -0.001526,0.006958 0,0.009705c0.127869,0.24707 0.253601,0.50647 0.38916,0.788208c0.019897,0.041199 0.038452,0.074951 0.058411,0.11676c0.131958,0.276428 0.26239,0.562988 0.398987,0.866028c0.025757,0.057129 0.051941,0.107605 0.07782,0.165527c0.131836,0.295105 0.265137,0.600342 0.399048,0.914673c0.029663,0.069824 0.057739,0.133728 0.087524,0.204346c0.130249,0.308838 0.259216,0.62207 0.389282,0.94397c0.158752,0.392883 0.311523,0.791199 0.467041,1.196899l0.486633,-0.126526c1.552307,-1.138672 2.928894,-5.828918 2.929016,-5.828918c4.756226,-10.997681 8.854919,-25.257813 22.906921,-54.250732c16.196045,-27.616333 34.314453,-29.751038 44.033142,-31.178406c9.871094,-1.449951 26.433838,-8.968872 40.510498,16.289795c10.283203,27.272766 9.254272,39.641357 9.254272,45.366333c0,5.408264 -5.216492,12.075806 -5.799744,12.806152c1.975464,-0.451721 199.481384,-45.603271 208.449463,-47.653198c9.013184,-2.06012 14.931763,-11.592834 18.021973,-20.863403c3.09021,-9.270691 3.078613,-9.163879 5.80957,-17.117004c0.704102,-3.246887 4.802612,-6.495972 11.443726,-7.346985c6.793823,-0.870544 52.020386,-9.532593 57.685791,-10.305176c5.665405,-0.772552 5.669434,-0.257599 6.441895,3.347412c0.772705,3.605286 1.411743,19.577148 1.92688,25.242554c0.128662,1.416321 -2.442627,6.432251 -2.442505,6.432251l8.86499,-1.761353l0.009644,0c0.352661,-1.490906 0.682861,-2.849792 0.905151,-3.775635c0.772583,-3.219055 3.223145,-3.7323 4.768188,-3.989868c0.726074,-0.120911 2.447266,-0.492065 4.281616,-0.924438c0.061768,-0.014465 0.123047,-0.033936 0.184937,-0.048584c1.648193,-9.014709 3.009644,-18.089111 4.807129,-27.071899c0.36853,-2.092834 1.343262,-22.926208 1.342896,-23.305969c0,-0.379761 1.171387,-18.867462 0.924438,-27.772491c-0.246948,-8.904999 -2.364502,-37.386322 -2.364624,-44.636414c-0.000122,-7.250153 -2.617676,-35.241364 -2.617676,-36.248322c0,-0.973541 -0.497925,-2.377319 -0.895264,-2.773376zm-797.763794,179.528748l-0.066345,2.040771c0,-0.000122 -5.908173,0.137573 -7.416901,0.236328c-1.284821,0.084045 -1.274719,1.274719 -1.274719,1.274719l-0.545013,8.378479l11.08371,9.049927l2.637146,2.967957l3.892426,-1.352661c3.991852,0.961426 9.596313,2.196228 15.667084,3.143188c-9.624207,-4.877808 -17.849976,-13.906738 -23.977386,-25.738708zm0.233521,29.757629c0.083435,0.081543 0.167023,0.160645 0.25296,0.233521c-0.084717,-0.072327 -0.170654,-0.15271 -0.25296,-0.233521zm4.301086,2.063049l0.019501,0.07782l11.560486,22.478821c0,0 -0.035095,-0.000061 -0.03891,0l0.360046,0.05835c1.311981,0.399719 27.778656,8.40863 55.476959,12.669861c28.406403,4.370178 65.548584,8.008728 65.548584,8.008728l0.17511,-0.749329c-0.024536,-0.429138 -0.053833,-0.868469 -0.07782,-1.29425c-0.135376,-2.398315 -0.262177,-4.716553 -0.379547,-6.957764c-0.018677,-0.352661 -0.030609,-0.677185 -0.048615,-1.021667c-0.04422,-0.852722 -0.094879,-1.692078 -0.13623,-2.51062c-0.087799,-1.724976 -0.152191,-3.165588 -0.223846,-4.651489c-0.152466,-3.158264 -0.274872,-5.720276 -0.369751,-7.843262l-0.019501,0.058411c-28.162781,-1.828796 -49.981201,-4.751465 -79.882446,-8.397949c-15.196381,-1.85321 -29.379944,-4.355835 -39.80014,-6.753357c-6.451935,-1.489807 -10.142426,-2.52002 -12.163879,-3.172302zm134.970123,69.372864c0.251465,2.854187 0.506348,5.54895 0.778534,7.950317l0.009705,0c-0.273285,-2.40802 -0.535553,-5.091248 -0.788239,-7.950317z"/>
  <path fill="url(#linearGradient3287)" fill-rule="evenodd" marker-start="none" marker-mid="none" marker-end="none" stroke-miterlimit="4" stroke-dashoffset="0" id="path5193" d="m644.607727,215.877716c-29.170166,0.053467 -56.008057,0.888687 -78.432434,2.812286c-101.375702,8.709503 -122.216492,20.000275 -125.803497,21.797623c-3.587006,1.797348 -16.815308,8.096268 -27.40271,22.420425l-4.009216,1.664001l0.233551,2.549561c0,0 -54.609497,99.961121 -55.710419,101.94281c-1.100983,1.98172 -4.405762,5.066071 -4.846069,6.607422c-0.426117,1.491302 -2.493286,13.621796 -3.026428,17.603485l0.233551,0.029205l-0.29187,0.418457c0.014282,-0.114349 0.040497,-0.314056 0.058319,-0.447662l-0.058319,-0.009705l0,0.01947l-3.814575,0l-3.094574,0l-1.15799,0c-0.835083,-0.13913 -1.208496,0.402954 -1.011993,1.780762l0.17514,11.648163l8.251984,0c0,0 -1.493347,2.924835 1.313721,5.731628c0.157959,0.157959 -0.902985,11.287354 -1.527771,17.642365c9.714447,-14.841553 22.346252,-24.715088 35.927155,-26.993958c7.071106,-2.491333 15.994049,-4.520447 26.264099,-4.427673c10.259064,0.092438 21.850067,2.301453 34.243744,8.242279l0.379486,0.194519c24.575012,10.870392 40.437042,48.270538 36.579163,91.66684c-0.287109,3.230042 -0.679718,6.406342 -1.167725,9.526733l0.17514,-0.058411c0,0 12.662323,-9.313904 24.619598,-17.934326c5.416351,-3.89801 10.824707,-7.810547 16.338562,-11.570282c12.41394,-8.432709 64.617615,-39.392303 101.72876,-52.401886c0,0 3.481995,-1.058197 9.293152,-2.675995l3.230652,-0.885559c12.333557,-3.370819 32.098877,-8.430481 51.604004,-11.930328c1.500427,-0.269196 3.001953,-0.529144 4.495789,-0.778442c2.987549,-0.498718 5.95575,-0.951263 8.874695,-1.352661c35.230225,-4.844177 125.949402,-12.329285 125.949402,-12.329285l186.749207,-14.012756l125.209778,-9.400238l0.107056,-0.009735l0.408691,-0.535187c0.90271,-1.341705 1.953735,-4.264526 1.0802,-9.118042c-0.827271,-4.595947 -2.748901,-5.994293 -3.366943,-6.33493c-0.409912,-2.76651 -8.633789,-57.565887 -20.60083,-80.047882l-4.631836,-6.909058c-0.275269,-0.313965 -0.533325,-0.600403 -0.720093,-0.807709c-4.283081,-4.753204 -14.711914,-10.054657 -30.283203,-16.572021c-19.815552,-8.293747 -63.368713,-14.762192 -81.89679,-17.126694c-15.477966,-1.975281 -210.121948,-19.885208 -350.669312,-19.627609zm-207.933685,361.607025c-0.834076,0.444519 -1.673706,0.860962 -2.520355,1.245667l0.048615,0.067993c-7.788452,3.361938 -15.096283,5.546692 -21.875427,6.841003c-0.010071,0.001953 -0.019226,0.007874 -0.029205,0.009705l-0.009705,-0.009705c-0.049377,0.009338 -0.09668,0.019897 -0.146027,0.029236l0.107025,0.058289c6.979279,0.850647 13.840271,1.696655 20.668884,2.500977l0.184845,-0.506042c0,-0.000061 1.816193,-6.078613 3.57135,-10.237122zm-98.916473,4.758484c0.082306,0.080811 0.168243,0.161194 0.25296,0.233521c-0.085938,-0.072876 -0.169525,-0.151978 -0.25296,-0.233521zm70.521179,4.067627c-0.43454,0.061646 -0.864471,0.111023 -1.29425,0.165405l0.03891,0.009705c0.41745,-0.05365 0.833313,-0.114197 1.255341,-0.17511zm-2.666382,8.514587c0,0 4.735596,18.027649 11.472961,18.391846c6.737457,0.364136 10.377747,-5.650452 12.562836,-14.937195l-24.035797,-3.454651z"/>
  <path fill="#5d536c" fill-rule="evenodd" marker-start="none" marker-mid="none" marker-end="none" stroke-miterlimit="4" stroke-dashoffset="0" id="path8026" d="m747.888916,278.721313l42.622131,0.791992c5.451172,0.071442 6.184448,3.815399 6.850525,5.96106l15.388123,86.129089l-47.490234,1.897797"/>
  <path fill="#6d6f84" fill-rule="evenodd" marker-start="none" marker-mid="none" marker-end="none" stroke-miterlimit="4" stroke-dashoffset="0" id="path3448" d="m702.35199,281.241394l-0.363953,3.178162c4.565796,0.112762 3.785461,3.290771 3.380615,5.268433l-9.935364,52.362946l-3.561462,31.991119l67.776672,-2.33548l-3.185791,-18.186523c-0.851318,-2.060333 -4.361389,-3.616119 -7.742065,-3.616119c-3.52301,0 -26.196106,-0.437897 -26.196045,-0.437897l14.421387,-64.847931l7.191345,0.13623l-0.583923,-3.279388l-41.201416,-0.233551z"/>
  <path fill="none" fill-rule="evenodd" marker-start="none" marker-mid="none" marker-end="none" stroke-miterlimit="4" stroke-dashoffset="0" d="m816.53656,374.821564l-15.881104,-90.071411c-0.604065,-2.789307 -2.557861,-9.802551 -10.898865,-9.341827l-127.710693,-1.284515c-5.324219,0.117157 -8.454285,-0.331543 -10.349976,6.017151" id="path3230"/>
  <path fill="#333333" fill-rule="evenodd" marker-start="none" marker-mid="none" marker-end="none" stroke-miterlimit="4" stroke-dashoffset="0" id="path3545" d="m405.651367,398.666382c-9.757446,0.070221 -18.248962,2.035706 -25.038086,4.427673c3.000671,-0.50354 6.045868,-0.645935 9.118042,-0.379547c31.022369,2.690063 52.914398,45.073456 48.869446,94.595856c-0.063263,0.773773 -0.129303,1.538239 -0.204315,2.306213c-0.009521,0.097137 -0.019592,0.195007 -0.029205,0.291962c-0.066833,0.66983 -0.138367,1.339294 -0.214142,2.004547c-0.021637,0.190918 -0.045715,0.383789 -0.068115,0.574219c-0.066986,0.568878 -0.140625,1.137482 -0.21405,1.702911c-0.001678,0.012787 0.001678,0.026215 0,0.039001c-0.086761,0.667786 -0.186615,1.332001 -0.282227,1.994843c-0.010742,0.07428 -0.018311,0.149567 -0.029205,0.223755c-0.054321,0.372559 -0.108337,0.748199 -0.165436,1.11911c-0.022034,0.142914 -0.045624,0.285492 -0.068115,0.428162c-0.089661,0.570007 -0.185944,1.136932 -0.282166,1.702911c-0.020813,0.122803 -0.037231,0.247162 -0.058411,0.369873c-0.048126,0.278687 -0.096191,0.559082 -0.145935,0.836731c-0.097778,0.547424 -0.197876,1.0914 -0.301636,1.634888c-0.035919,0.187744 -0.070465,0.377136 -0.107117,0.564392c-0.046387,0.237671 -0.098358,0.473572 -0.145935,0.710327c-0.098541,0.490723 -0.198181,0.982178 -0.301636,1.469482c-0.151367,0.712952 -0.305389,1.425354 -0.467102,2.131104c-0.001587,0.006775 -0.008209,0.012573 -0.009705,0.01947c-8.87088,38.690002 -33.032257,66.182129 -59.233124,64.789551c-0.379089,-0.014465 -0.780762,-0.041809 -1.196899,-0.077942c-0.439026,-0.038025 -0.878387,-0.082275 -1.313751,-0.13623c-0.045624,-0.005554 -0.090607,-0.013611 -0.13623,-0.019409c-0.479675,-0.061462 -0.955444,-0.133484 -1.43045,-0.214111c-0.40036,-0.067932 -0.799988,-0.142456 -1.196899,-0.223816c-0.23114,-0.047058 -0.461029,-0.09436 -0.690918,-0.145935c-0.234039,-0.052734 -0.467834,-0.108154 -0.700653,-0.165466c-0.254517,-0.062378 -0.505981,-0.136475 -0.759033,-0.204346c-0.122955,-0.033081 -0.247162,-0.062927 -0.369751,-0.09729c-0.351105,-0.098145 -0.702789,-0.20282 -1.050995,-0.31134c-0.042084,-0.013245 -0.084442,-0.025696 -0.126526,-0.039001c-0.397675,-0.12561 -0.793457,-0.259888 -1.187103,-0.398987c-0.398224,-0.140625 -0.793091,-0.283569 -1.187225,-0.437866c9.760162,4.940125 25.862915,9.952454 47.361206,5.887329l0.009705,0.009705c0.009979,-0.001831 0.019135,-0.007751 0.029205,-0.009705c6.779144,-1.294312 14.086975,-3.479065 21.875427,-6.841003l-0.048615,-0.067993c22.355865,-10.15625 40.502533,-41.449768 43.926086,-79.960388c3.85788,-43.396301 -12.00415,-80.796448 -36.579163,-91.66684l-0.379486,-0.194519c-12.393677,-5.940826 -23.98468,-8.149628 -34.243744,-8.242279c-0.409607,-0.003693 -0.820709,-0.002899 -1.226013,0z"/>
  <path fill="#595959" fill-rule="nonzero" marker-start="none" marker-mid="none" marker-end="none" stroke-miterlimit="4" stroke-dashoffset="0" id="path7130" d="m438.603027,497.306549c-4.044952,49.52243 -32.505463,87.531219 -63.527954,84.841095c-31.0224,-2.690063 -52.917236,-45.06543 -48.872284,-94.58783c1.818146,-22.26059 8.569702,-42.194885 18.269684,-57.151947c11.879211,-18.317352 28.180511,-29.170013 45.258179,-27.689178c31.022491,2.690094 52.917328,45.06543 48.872375,94.58786z"/>
  <path fill="#cccccc" fill-rule="evenodd" marker-start="none" marker-mid="none" marker-end="none" stroke-miterlimit="4" stroke-dashoffset="0" id="path3589" d="m317.283325,557.098083c-0.814178,0.030884 -4.079315,0.517395 -4.135651,6.432251c-0.064026,6.7229 3.425964,34.108948 3.464203,34.409119c0.004028,-0.009155 0.005707,-0.02002 0.009827,-0.029114c2.510712,-5.729797 4.447083,-5.98468 4.447083,-5.98468l0.03891,0.029175c0.032288,0.830139 0.063995,1.722351 0.097321,2.578796l0.009705,-0.009705c-0.406708,-10.473877 -0.763977,-19.444824 -0.827148,-20.454773c-0.181671,-2.906372 1.116028,-7.45105 5.099121,-8.738586l0,-0.009705c0,0 0.370972,-0.097595 0.408661,-0.106995l0,-0.009827c0,0.000122 -1.742462,-0.832825 -3.094452,-4.11615c-1.35199,-3.283386 -2.059052,-3.989807 -5.342377,-3.989807c0,0 -0.058868,-0.004333 -0.175201,0z"/>
  <path fill="#cccccc" fill-rule="evenodd" marker-start="none" marker-mid="none" marker-end="none" stroke-miterlimit="4" stroke-dashoffset="0" id="path7040" d="m353.959778,606.921265l-0.366394,-0.059814c0,-0.000122 -6.431702,0.158875 -9.345245,3.436462c-2.913422,3.27771 -7.473419,15.66748 -7.473419,19.491455c0,3.823853 6.335663,11.910645 6.743591,13.837524c0.568604,2.685791 83.532806,21.65741 135.067444,23.850891c-1.384369,-8.738098 -2.565796,-25.624573 -3.425323,-40.636963l-0.17511,0.759033c0,0 -37.142181,-3.63855 -65.548584,-8.008728c-27.698303,-4.26123 -54.164978,-12.270142 -55.476959,-12.669861z"/>
  <path fill="#333333" fill-rule="evenodd" marker-start="none" marker-mid="none" marker-end="none" stroke-miterlimit="4" stroke-dashoffset="0" d="m1085.688599,514.446777c-14.317261,2.639648 -30.38269,5.60907 -34.224243,6.101379c-6.641113,0.851013 -10.739624,4.100098 -11.443726,7.346985c-2.730957,7.953125 -2.71936,7.846313 -5.80957,17.117004c-3.09021,9.270569 -9.008789,18.803284 -18.021973,20.863403c-0.02301,0.005249 -0.487976,0.106018 -0.535217,0.11676l-0.398987,1.732178c-0.378296,1.312988 -0.729797,1.722412 -1.975281,2.072693l-14.003052,3.250183c-2.320923,34.038574 8.007141,59.379456 27.217712,61.529663c0.254395,0.368896 17.55896,3.883667 31.022705,2.49115c17.395386,1.080811 34.198364,-28.184998 37.503662,-65.324768c2.102051,-23.619812 -1.766968,-44.755066 -9.332031,-57.296631z" id="path3289"/>
  <path fill="#575757" fill-rule="evenodd" marker-start="none" marker-mid="none" marker-end="none" stroke-miterlimit="4" stroke-dashoffset="0" d="m1085.688599,514.446777c-14.317261,2.639648 -30.38269,5.60907 -34.224243,6.101379c-3.648438,0.467529 -6.522827,1.6651 -8.495239,3.182068c-5.587158,11.524353 -9.663818,26.498413 -11.122559,43.011414l-0.034546,1.135437c-1.239502,13.927429 -0.229858,26.946655 2.214233,37.895935c0.082886,0.37146 0.166504,0.742798 0.25293,1.109314c0.019775,0.083679 0.038574,0.169617 0.058472,0.253052c4.258301,17.464417 12.648193,29.183594 23.218384,29.845154c7.117432,0.445557 14.133789,-4.190857 20.182129,-12.37793c0.232666,-0.31488 0.471069,-0.638 0.700684,-0.963379c0.162842,-0.230469 0.325317,-0.464905 0.486694,-0.700623c0.065308,-0.096191 0.129395,-0.194885 0.19458,-0.291931c0.226563,-0.33551 0.447754,-0.676086 0.671387,-1.021667c0.155396,-0.240173 0.313354,-0.484924 0.467041,-0.729858c0.066895,-0.107117 0.137817,-0.213135 0.204346,-0.321167c0.151001,-0.243591 0.298218,-0.491333 0.447754,-0.739502c0.067139,-0.112366 0.137329,-0.227417 0.204224,-0.340698c7.011353,-11.865479 12.217529,-28.781189 13.905762,-47.750366c2.102051,-23.619812 -1.766968,-44.755066 -9.332031,-57.296631z" id="path3185"/>
  <path fill="#ffffff" fill-rule="evenodd" stroke-width="2.918855" marker-start="none" marker-mid="none" marker-end="none" stroke-miterlimit="4" stroke-dashoffset="0" id="path3183" d="m1085.558472,571.97644a21.739902,43.239803 0 1 1 -43.479858,-2.51709a21.739902,43.239803 0 1 1 43.479858,2.51709z"/>
  <path fill="#b3b3b3" fill-rule="evenodd" stroke-width="3.119047" marker-start="none" marker-mid="none" marker-end="none" stroke-miterlimit="4" stroke-dashoffset="0" id="path3871" d="m1084.469238,571.744873a19.723858,41.737896 0 1 1 -39.447632,-2.429626a19.723858,41.737896 0 1 1 39.447632,2.429626z"/>
  <path fill="#333333" fill-rule="nonzero" marker-start="none" marker-mid="none" marker-end="none" stroke-miterlimit="4" stroke-dashoffset="0" d="m1112.439331,509.941345c-0.808838,0.003998 -1.872803,0.10849 -3.289185,0.301636c-2.439941,0.332733 -12.578247,2.199585 -23.451904,4.203796c4.425781,7.338989 7.582886,17.620117 9.02002,29.620728l20.358154,1.197693c0,0 2.571167,-5.015991 2.442505,-6.432251c-0.515137,-5.665405 -1.154175,-21.637268 -1.92688,-25.242554c-0.579346,-2.703888 -0.72644,-3.661194 -3.15271,-3.649048z" id="path4167"/>
  <path fill="#cccccc" fill-rule="evenodd" marker-start="none" marker-mid="none" marker-end="none" stroke-miterlimit="4" stroke-dashoffset="0" d="m1134.97644,529.753784c-0.057861,0.334106 -0.116699,0.668274 -0.175171,1.002258c1.024292,0.316406 3.320313,1.016418 3.834106,1.119141c0.643799,0.128723 2.702393,0.903442 0.642212,1.547241c-1.05957,0.331055 -3.171753,0.865601 -5.186646,1.342896c-0.06189,0.014648 -0.123169,0.034119 -0.184937,0.048584c-1.834351,0.432373 -3.555542,0.803528 -4.281616,0.924438c-1.545044,0.257568 -3.995605,0.770813 -4.768188,3.989868c-0.22229,0.925842 -0.55249,2.284729 -0.905151,3.775635c-0.873291,3.693604 -1.891846,8.298462 -1.800171,9.857605c0.128784,2.188843 2.834717,8.131287 3.221069,8.90387c0.386353,0.772583 1.03125,2.064636 4.378906,1.420776c3.347778,-0.643799 15.836792,-3.097534 17.253296,-3.483765c1.41626,-0.386292 1.719238,-0.92511 3.006836,-3.113953c1.287476,-2.188904 3.39624,-6.176758 3.435059,-9.351563c0.034546,-2.753967 -2.578491,-9.80896 -2.578613,-9.80896l-0.048706,-0.009705l-0.097412,-0.21405c-0.207275,0.418091 -0.44751,0.904968 -0.44751,0.904968c-2.804199,-0.485107 -5.535278,-2.843994 -5.838745,-4.612549c0,0 0.324097,-0.640869 0.817383,-1.605652c-3.547241,-1.757385 -8.628662,-2.447083 -10.276001,-2.637085z" id="path2393"/>
  <path fill="#76705a" fill-rule="nonzero" d="m1090.189697,410.60791c0,0 0.095947,2.772766 0.845215,3.194061c1.335449,0.750763 2.603516,0.304199 4.675781,0.135712c2.956055,-0.240387 22.414185,-1.585815 24.158936,-1.728577c1.744629,-0.142731 2.679321,-1.221375 2.666992,-3.772308l-0.13501,-0.133606l-32.211914,2.304718z" id="path2397"/>
  <path fill="#76705a" fill-rule="nonzero" marker-start="none" marker-mid="none" marker-end="none" stroke-miterlimit="4" stroke-dashoffset="0" d="m811.346191,612.687866l0.274719,2.494141c0.153137,1.028687 1.095886,1.287048 2.007996,0.959229l99.736145,-23.157349l50.794922,-11.793884l49.118347,-11.396301c1.245605,-0.350342 1.600403,-0.756226 1.978882,-2.069214l0.413269,-1.796387l-204.32428,46.759766z" id="path2403"/>
  <path fill="#b3b3b3" fill-rule="evenodd" stroke-miterlimit="4" stroke-dashoffset="0" d="m1139.297119,502.65274c-0.15625,2.515594 -0.299805,4.477234 -0.399048,5.04068c-0.112671,0.563293 -0.221313,1.129272 -0.330811,1.693207c2.698486,0.358856 5.76001,0.541565 8.359009,1.595886c2.555664,1.306488 4.12854,3.250946 4.466675,5.634308c0.337891,2.383362 -0.404419,5.090149 -1.206787,6.510071c-2.549194,4.511292 -5.751099,10.869629 -5.751099,10.869629c0.303467,1.768555 3.034546,4.127441 5.838745,4.612549c0,0 3.872437,-7.867676 6.179199,-11.949768c1.729736,-3.061096 2.668457,-7.11615 2.062866,-11.385376c-0.605347,-4.269196 -3.39502,-8.910919 -8.670288,-10.684753c-2.767578,-0.930603 -6.970581,-1.868042 -10.548462,-1.936432z" id="path3194"/>
  <path fill="#b4b4b4" fill-rule="nonzero" marker-start="none" marker-mid="none" marker-end="none" stroke-miterlimit="4" stroke-dashoffset="0" id="path8112" d="m828.515564,385.792145c0,0 -90.719177,7.485077 -125.949402,12.329315c-23.351807,3.210815 -49.7948,9.91272 -64.974487,14.061432l-3.230652,0.885468c-5.811035,1.617798 -9.293274,2.676056 -9.293274,2.676056c-37.111084,13.009613 -89.314758,43.969208 -101.72876,52.401917c-11.420441,7.757751 -40.958069,29.504517 -40.958069,29.504608l-0.175201,0.058411c-0.653229,1.76123 -2.404114,4.455109 -4.884979,7.78479c-0.12793,0.937622 -0.263611,1.874878 -0.408691,2.802612l0.17514,-0.058411c0,0 12.662323,-9.313904 24.619598,-17.934326c5.416351,-3.89801 10.824707,-7.810547 16.338562,-11.570282c12.41394,-8.432709 64.617615,-39.392303 101.72876,-52.401886c0,0 3.481995,-1.058197 9.293152,-2.675995l3.230652,-0.885559c12.333557,-3.370819 32.098877,-8.430481 51.604004,-11.930328c1.500427,-0.269196 3.001953,-0.529144 4.495789,-0.778442c2.987549,-0.498718 5.95575,-0.951263 8.874695,-1.352661c35.230225,-4.844177 125.949402,-12.329285 125.949402,-12.329285l186.749207,-14.012756l125.209778,-9.400238l0.107056,-0.009735l0.408691,-0.535187c0.814819,-1.211029 1.750488,-3.710236 1.282593,-7.754669l-308.463562,21.125153z"/>
  <path fill="none" fill-rule="evenodd" marker-start="none" marker-mid="none" marker-end="none" stroke-miterlimit="4" stroke-dashoffset="0" d="m825.255554,442.803894l2.646851,78.606201c0,0 -0.8078,59.475037 -1.089844,66.171387c-0.301758,7.320129 -0.954041,23.544189 -4.826599,22.57605m-5.508789,-235.388397c1.861206,-0.318237 6.104431,3.749939 6.754333,7.914642c0.607849,3.894806 2.33551,10.431732 -0.622742,13.857086l2.543335,40.094727" id="path3202"/>
  <path fill="none" fill-opacity="0.535912" fill-rule="evenodd" marker-start="none" marker-mid="none" marker-end="none" stroke-miterlimit="4" stroke-dashoffset="0" d="m610.08197,627.693359l0.07782,-23.14093" id="path3206"/>
  <path fill="#918a6f" fill-rule="evenodd" stroke-linecap="square" stroke-linejoin="round" marker-start="none" marker-mid="none" marker-end="none" stroke-miterlimit="4" stroke-dashoffset="0" d="m632.076416,423.68161l1.075989,-10.48468l-11.716675,-1.390137l-1.390015,10.85611l12.030701,1.018707z" id="path3257"/>
  <path fill="none" fill-rule="evenodd" marker-start="none" marker-mid="none" marker-end="none" stroke-miterlimit="4" stroke-dashoffset="0" d="m655.897827,263.742523l-30.331299,119.265442l-6.189758,43.391327c-4.265808,29.904114 -7.973694,82.720032 -9.2948,106.940857c-0.287842,5.276672 0,55.253296 0,55.253296l7.977844,0.220825l-0.264832,15.622192l-7.94342,0.529602" id="path3208"/>
  <path fill="#5d536c" fill-rule="evenodd" marker-start="none" marker-mid="none" marker-end="none" stroke-miterlimit="4" stroke-dashoffset="0" id="path3242" d="m823.105042,274.556152c-4.127441,0.151733 -6.268372,2.486694 -4.554199,10.626343c0,0 5.550232,25.544098 7.53186,36.773773c1.981689,11.229614 6.831238,43.819061 6.831238,43.819061c0.80365,3.887177 1.560547,9.55188 9.244568,8.80661l55.379639,-3.084747c6.624329,-0.384216 7.021912,-4.099304 6.500244,-9.90625c-4.548035,-25.431213 -8.836731,-50.793457 -14.976074,-76.622528c-1.391296,-4.167297 -1.327942,-9.245605 -9.030457,-9.468353l-55.048767,-0.885529c-0.665161,-0.056915 -1.288452,-0.080048 -1.878052,-0.05838zm87.034851,1.041229c-7.982788,0.035004 -4.670959,11.23941 -4.670959,11.23941c-0.220154,0 5.830078,24.555908 6.490601,28.959686c0.660583,4.403778 5.400574,35.449188 7.162048,46.01828c1.761536,10.569092 10.015381,7.810455 13.098083,7.59024c3.082703,-0.220184 39.740601,-2.199768 44.694824,-2.53006c4.954285,-0.330292 4.296387,-7.37619 3.415588,-12.990997c-0.880676,-5.614838 -10.564697,-59.010071 -12.436218,-68.808502c-1.871643,-9.798401 -10.243042,-8.582794 -11.784424,-8.582794c-1.541321,0 -37.103088,-0.555267 -45.580383,-0.885529c-0.132385,-0.005157 -0.262573,-0.010284 -0.38916,-0.009735zm76.855957,2.208954c-7.013306,0.032898 -4.106384,10.548492 -4.106384,10.548492c-0.193542,0 4.246155,22.186157 4.826538,26.322571c0.580444,4.136414 6.06958,33.296967 7.60968,43.225494c1.4375,9.211731 8.803589,7.339691 11.511902,7.132874c2.708435,-0.206818 34.133972,-2.265778 38.496155,-2.384125c6.081177,-0.167114 4.932373,-6.762054 3.765991,-12.193054c-1.119385,-5.211517 -9.899414,-54.901001 -11.628784,-64.088898c-1.644287,-8.73642 -8.989868,-8.067078 -10.343994,-8.067078c-1.354248,0 -32.342529,-0.186066 -39.790405,-0.496277c-0.116394,-0.004852 -0.22937,-0.000519 -0.340698,0z"/>
  <path fill="#333333" fill-rule="evenodd" marker-start="none" marker-mid="none" marker-end="none" stroke-miterlimit="4" stroke-dashoffset="0" d="m1117.324219,536.27356c0.068237,0.986023 0.130249,1.851196 0.194702,2.559387c-0.062988,-0.693665 -0.126465,-1.584229 -0.194702,-2.559387zm6.617188,7.230286l-8.86499,1.761353l-20.357422,-1.197021c0.259766,2.171204 0.460205,4.399475 0.603271,6.675598c0.066528,0.02655 5.470093,2.181458 9.61438,3.833984l2.549561,-0.982788l15.199951,2.208923l0.019409,-0.07782c-0.303711,-0.938782 -0.520508,-1.78595 -0.554688,-2.364624c-0.091675,-1.559326 0.927246,-6.165527 1.800171,-9.857605l-0.009644,0z" id="path3277"/>
  <path fill="#484537" fill-rule="evenodd" marker-start="none" marker-mid="none" marker-end="none" stroke-miterlimit="4" stroke-dashoffset="0" d="m999.27655,573.027832l-10.227417,2.257629l9.993896,2.150574c0.052429,-1.419067 0.135254,-2.858765 0.233521,-4.310791c0.00177,-0.032532 -0.002258,-0.064941 0,-0.097412z" id="path3293"/>
  <path fill="#333333" fill-rule="evenodd" marker-start="none" marker-mid="none" marker-end="none" stroke-miterlimit="4" stroke-dashoffset="0" id="path3299" d="m778.507446,536.896362c-5.604431,-0.013062 -10.722656,1.580994 -14.732849,2.170105c-8.111633,1.191467 -22.075256,2.880676 -35.888184,19.462158c6.973145,-4.142029 14.438599,-6.40686 22.060303,-6.403137c1.421326,0.000854 2.851685,0.081848 4.281677,0.243347c26.506653,2.993225 45.655762,33.092163 47.633667,71.017456l2.111694,2.637085c0.616089,0.291382 0.937073,1.089783 2.325684,0.029175c1.519958,-1.154724 3.697754,-2.87384 3.697754,-3.279358c0,-0.601257 -2.845581,-8.44989 -3.045715,-9.001221l0.681152,-0.097351c0,0 5.906738,-7.227173 5.906738,-12.952026c0,-5.724976 1.028931,-18.093567 -9.254272,-45.366333c-8.357971,-14.997314 -17.586548,-18.440735 -25.777649,-18.4599z"/>
  <path fill="#ffffff" fill-rule="evenodd" marker-start="none" marker-mid="none" marker-end="none" stroke-miterlimit="4" stroke-dashoffset="0" d="m1064.358032,541.362976c-7.263672,0.322449 -14.117676,12.311646 -15.501587,27.40271c-1.428589,15.577942 3.515381,28.593872 11.034912,29.047302c2.133545,0.128601 3.378906,-0.503296 6.208496,-2.481445c2.82959,-1.97821 13.195313,-11.956909 13.195313,-26.24469c0,-18.405334 -6.854248,-23.394348 -8.39978,-25.044983c-1.545532,-1.650757 -3.292603,-2.516357 -5.827026,-2.669189c-0.234985,-0.01416 -0.476074,-0.020142 -0.710327,-0.009705z" id="path3873"/>
  <path fill="#878787" fill-rule="evenodd" marker-start="none" marker-mid="none" marker-end="none" stroke-miterlimit="4" stroke-dashoffset="0" d="m1063.988159,535.621643c-8.12146,-0.069336 -15.873657,14.669861 -17.418579,33.289978c-1.569336,18.915771 3.864258,34.714905 12.124878,35.265503c5.487915,0.365784 10.852783,-6.086853 14.295044,-16.007629l0.009644,-0.223877c-2.734131,3.898682 -5.605103,6.48114 -6.899292,7.385925c-2.82959,1.978149 -4.074951,2.610046 -6.208496,2.481445c-7.519531,-0.45343 -12.463501,-13.46936 -11.034912,-29.047302c1.383911,-15.091064 8.237915,-27.080261 15.501587,-27.40271c0.234253,-0.010437 0.475342,-0.004456 0.710327,0.009705c2.534424,0.152832 4.283325,1.015625 5.828979,2.666382c0.66272,0.707886 2.304321,2.037415 3.960449,4.768127l0,-0.048584c-2.119507,-7.732178 -5.857544,-12.809387 -10.480347,-13.117493c-0.129028,-0.008667 -0.260376,-0.018372 -0.389282,-0.01947z" id="path3880"/>
  <path fill="#5d536c" fill-rule="evenodd" marker-start="none" marker-mid="none" marker-end="none" stroke-miterlimit="4" stroke-dashoffset="0" id="path3885" d="m702.702393,278.156647l-0.350403,3.084747l41.201416,0.233551l16.096313,90.229492l-67.787903,2.26889l-0.322632,2.234192l68.440369,-2.316467l0.758911,0.05838l1.771118,-0.05838l-17.681335,-94.985107l-42.125854,-0.749298z"/>
  <path fill="#d5e5ff" fill-rule="evenodd" stroke-linecap="square" stroke-linejoin="round" marker-start="none" marker-mid="none" marker-end="none" stroke-miterlimit="4" stroke-dashoffset="0" d="m748.999512,284.800232l28.238464,0.702393c1.344666,0.176758 3.139954,-0.676208 2.532166,3.963379l-11.009399,61.763092c-0.572693,2.267609 -2.009155,3.468353 -3.743286,3.412933l-3.185364,-0.187531l-12.832581,-69.654266z" id="path3207"/>
  <path fill="#ffffff" fill-rule="evenodd" stroke-linecap="square" stroke-linejoin="round" marker-start="none" marker-mid="none" marker-end="none" stroke-miterlimit="4" stroke-dashoffset="0" d="m623.624207,260.518219c0,0 1.328003,2.589783 4.847473,2.589783c3.519409,0 4.382629,-2.589783 4.382629,-2.589783c0,0 136.260925,2.390564 239.054199,5.046722c102.793213,2.656158 239.255188,4.515472 239.255188,4.515472c0.837402,0.619751 0.354858,1.239532 0,1.859283l-228.364929,-3.718597l-254.725464,-4.781097l-206.383484,2.124939c-4.403809,-0.01828 -13.333832,-0.346588 -14.050232,0.137329c-0.102539,-0.858826 -0.027313,-2.527863 -0.027313,-2.527863l216.011932,-2.656189z" id="path2426"/>
  <path fill="#6d6f84" fill-rule="evenodd" marker-start="none" marker-mid="none" marker-end="none" stroke-miterlimit="4" stroke-dashoffset="0" id="path8022" d="m748.389771,281.377655l0.632507,3.454559l0.019531,-0.029205l28.200623,0.700623c1.344727,0.176758 3.137878,-0.679047 2.53009,3.960571l-11.015625,61.763153c-0.572571,2.267609 -2.002563,3.471039 -3.736755,3.415619l-3.189331,-0.187347l3.062744,16.927795l44.844666,-2.234314l-5.589355,-31.136566c-3.222656,0.57077 -5.872803,1.744385 -7.823792,4.82663c-1.270325,3.710541 -3.449768,9.264038 -3.454529,9.283447c-0.021301,0.08609 -0.605835,0.057709 -1.800232,0c-1.630493,-0.058899 -3.13147,-0.152283 -2.666382,-3.075012l8.826172,-49.55069l-2.092224,-11.657837c-0.652222,-2.089813 -1.377197,-5.739899 -6.714417,-5.809448l-40.033691,-0.651978z"/>
  <path fill="#5d536c" fill-rule="evenodd" stroke-linecap="square" stroke-linejoin="round" marker-start="none" marker-mid="none" marker-end="none" stroke-miterlimit="4" stroke-dashoffset="0" d="m643.213867,377.810699c-7.876038,0.205475 -11.010925,-8.736145 -8.40564,-16.44281l18.868958,-77.285004c0.377869,-0.995575 1.077454,-6.122131 7.63855,-6.081635l37.479126,0.165131l-11.350647,98.356354l-44.230347,1.287964z" id="path3229"/>
  <path fill="#d5e5ff" fill-rule="evenodd" stroke-linecap="square" stroke-linejoin="round" marker-start="none" marker-mid="none" marker-end="none" stroke-miterlimit="4" stroke-dashoffset="0" id="path3233" d="m657.988037,283.460083c-0.418945,0.569183 -0.579224,1.565521 -0.729797,2.33548l-16.484497,66.609253l11.599426,0.817413c1.272583,-2.597198 3.404419,-5.321564 6.879883,-5.313171c0.112183,0.000275 0.225708,0.003693 0.340576,0.009735c5.916565,0.311401 28.414795,0.934174 28.414795,0.934174l0.019409,0.544952l7.162109,-65.100952l-0.097351,0.097321l-37.104553,-0.934204zm44.033142,0.992584l-0.048645,0.07785l-6.539246,57.520416l9.935364,-52.362946c0.404846,-1.977661 1.218262,-5.122559 -3.347473,-5.235321z"/>
  <path fill="#6d6f84" fill-rule="evenodd" stroke-linecap="square" stroke-linejoin="round" marker-start="none" marker-mid="none" marker-end="none" stroke-miterlimit="4" stroke-dashoffset="0" id="path3241" d="m659.253052,347.909058c-3.475464,-0.008392 -5.6073,2.715973 -6.879883,5.313171l-11.599426,-0.817413l-2.666382,10.772308c-1.309021,6.752716 -0.347351,11.494751 5.585693,11.833008l41.493347,-0.712341l2.841431,-24.899872l-0.019409,-0.544952c0,0 -22.49823,-0.622772 -28.414795,-0.934174c-0.114868,-0.006042 -0.228394,-0.00946 -0.340576,-0.009735z"/>
  <path fill="#6d6f84" fill-rule="evenodd" stroke-linecap="square" stroke-linejoin="round" marker-start="none" marker-mid="none" marker-end="none" stroke-miterlimit="4" stroke-dashoffset="0" id="path3245" d="m661.666321,280.968933c-1.491516,0.067352 -2.78833,0.820099 -3.680237,2.491241l0.050537,-0.000092l37.055969,0.934204l0.097351,-0.097321l0.350342,-3.172333c-11.290649,0.039032 -22.583679,-0.233246 -33.873962,-0.155701z"/>
  <path fill="#d5e5ff" fill-rule="evenodd" stroke-linecap="square" stroke-linejoin="round" marker-start="none" marker-mid="none" marker-end="none" stroke-miterlimit="4" stroke-dashoffset="0" d="m804.08075,338.265533c0,0 -6.204407,0.04007 -7.755371,4.570221c-1.270447,3.710541 -3.450073,9.267456 -3.454834,9.286865c-0.021301,0.08609 -0.610046,0.056061 -1.804443,-0.001617c-1.630493,-0.058868 -3.122986,-0.152466 -2.657776,-3.075195l8.821777,-49.548889l6.850647,38.768616z" id="path3249"/>
  <path fill="#5d536c" fill-rule="evenodd" stroke-linecap="square" stroke-linejoin="round" marker-start="none" marker-mid="none" marker-end="none" stroke-miterlimit="4" stroke-dashoffset="0" d="m659.97937,384.132019l-2.009644,-14.806976c-0.888611,-7.020355 3.325439,-13.296143 9.448547,-14.071259l9.251099,-1.171082c6.123108,-0.775116 11.768066,4.252625 12.656677,11.27301l3.459473,27.328156c0.888733,7.020325 -3.325378,13.296112 -9.448486,14.071289l-9.250977,1.171082c-6.12323,0.775085 -11.768127,-4.252655 -12.65686,-11.27301l-1.056458,-8.345612l-0.123474,-0.97522" id="rect3264"/>
  <path fill="#c6c6c6" fill-rule="evenodd" stroke-linecap="square" stroke-linejoin="round" marker-start="none" marker-mid="none" marker-end="none" stroke-miterlimit="4" stroke-dashoffset="0" d="m661.904358,386.777771c0.05127,0.440643 0.025696,0.452942 0.079346,0.893127m0,0c0.501282,4.116852 1.117981,8.211517 2.136536,12.227478c1.941101,4.419006 7.296143,5.497131 11.496155,5.185211c4.303406,-0.541901 9.72406,-0.147583 12.446411,-4.361237c2.938477,-4.181946 1.614685,-9.698608 0.861145,-14.439606c-1.128723,-8.122833 -1.493896,-16.436981 -3.615112,-24.368286c-1.773926,-3.614075 -5.77948,-6.045471 -9.59314,-5.367279c-4.435547,1.207306 -9.918762,-0.039459 -13.381165,3.665436c-3.07782,3.128937 -3.151611,8.069641 -2.213989,12.24649c0.518555,3.250031 1.010559,11.02301 1.372681,11.02301" id="path3267"/>
  <path fill="#575757" fill-rule="evenodd" stroke-linecap="square" stroke-linejoin="round" marker-start="none" marker-mid="none" marker-end="none" stroke-miterlimit="4" stroke-dashoffset="0" id="path3427" d="m749.946716,552.125488c-7.621704,-0.003723 -15.087158,2.261108 -22.060303,6.403137c-2.736633,3.285034 -5.466736,7.149597 -8.144958,11.716248c-14.052002,28.99292 -18.150696,43.253052 -22.906921,54.250732c-0.000122,0 -1.376709,4.690247 -2.929016,5.828918l-0.486633,0.126526c1.315918,3.43512 2.461975,7.187561 2.461975,9.001221c0,3.52301 -1.322693,13.652405 -8.368713,17.175415c-0.167847,0.083862 -0.366394,0.175354 -0.574097,0.262695l0.690796,1.518066c3.463318,35.289124 22.020142,62.653625 47.224976,65.499878c31.28125,3.53241 61.009827,-32.03186 66.356201,-79.376465c5.346497,-47.344482 -15.700378,-88.630554 -46.981628,-92.163025c-1.429993,-0.161499 -2.860352,-0.242554 -4.281677,-0.243347zm-71.367676,67.922974c-0.231567,0.021851 -0.463562,0.041443 -0.700623,0.068176c0.238098,-0.026917 0.468079,-0.046204 0.700623,-0.068176zm6.49054,0.369812c0.142029,0.040833 0.278564,0.089844 0.418518,0.13623c-0.139954,-0.046387 -0.276367,-0.095398 -0.418518,-0.13623zm1.994873,0.807739c0.181763,0.09552 0.366516,0.193787 0.544983,0.301575c-0.178284,-0.107788 -0.363403,-0.206055 -0.544983,-0.301575zm0.544983,0.301575c0.203308,0.122864 0.403931,0.250061 0.603333,0.389221c-0.200073,-0.139832 -0.399353,-0.265869 -0.603333,-0.389221zm1.352661,0.96344c0.163635,0.135498 0.325073,0.279907 0.486511,0.428162c-0.161621,-0.14856 -0.322571,-0.29248 -0.486511,-0.428162zm0.486511,0.428162c0.19928,0.182861 0.397461,0.371094 0.593567,0.574097c-0.195007,-0.201782 -0.395508,-0.392151 -0.593567,-0.574097z"/>
  <path fill="#b2b2b2" fill-opacity="0.535912" fill-rule="evenodd" stroke-linecap="square" stroke-linejoin="round" marker-start="none" marker-mid="none" marker-end="none" stroke-miterlimit="4" stroke-dashoffset="0" id="path6895" d="m693.467529,650.136963c-0.065918,0.138 -0.13501,0.272095 -0.204346,0.408813c0.068848,-0.136047 0.138916,-0.271545 0.204346,-0.408813z"/>
  <path fill="#333333" fill-rule="evenodd" stroke-linecap="square" stroke-linejoin="round" marker-start="none" marker-mid="none" marker-end="none" stroke-miterlimit="4" stroke-dashoffset="0" id="path6893" d="m686.938049,656.890381c-5.13092,2.157043 -22.245422,5.317383 -42.184265,8.057373c4.191589,21.579956 14.31073,39.243408 28.278442,48.363403l0,0.01947c11.394104,7.731689 25.160706,10.526672 36.676514,11.297852c9.667786,0.647339 23.314148,-0.045105 30.234436,-0.486633c-1.689575,0.035034 -3.386902,-0.041199 -5.089355,-0.233521c-25.204834,-2.846252 -43.761658,-30.210754 -47.224976,-65.499878l-0.690796,-1.518066z"/>
  <path fill="#b2b2b2" fill-opacity="0.535912" fill-rule="evenodd" stroke-linecap="square" stroke-linejoin="round" marker-start="none" marker-mid="none" marker-end="none" stroke-miterlimit="4" stroke-dashoffset="0" id="path3432" d="m744.361145,723.791626c-0.246704,0.033386 -0.492493,0.068542 -0.739563,0.09729c0.400269,-0.029968 0.758972,-0.058411 0.758972,-0.058411l-0.019409,-0.038879z"/>
  <path fill="#ffffff" fill-rule="evenodd" stroke-width="2.033046" marker-start="none" marker-mid="none" marker-end="none" stroke-miterlimit="4" stroke-dashoffset="0" id="path3436" d="m781.925293,635.198853a32.146538,60.635742 0 1 1 -64.29303,0.913513a32.146538,60.635742 0 1 1 64.29303,-0.913513z"/>
  <path fill="#b3b3b3" fill-rule="evenodd" stroke-width="2.128927" marker-start="none" marker-mid="none" marker-end="none" stroke-miterlimit="4" stroke-dashoffset="0" d="m781.413635,634.699341a30.347206,58.575657 0 1 1 -60.694458,0.882446a30.347206,58.575657 0 1 1 60.694458,-0.882446z" id="path3446"/>
  <path fill="#ffffff" fill-rule="evenodd" marker-start="none" marker-mid="none" marker-end="none" stroke-miterlimit="4" stroke-dashoffset="0" d="m747.974304,594.99939c-10.664124,1.233887 -19.53302,18.665588 -20.029541,39.824524c-0.51239,21.84137 8.098145,39.427612 19.218323,39.246338c3.155029,-0.051392 4.924561,-1.065735 8.889404,-4.125488c3.965027,-3.059814 18.210999,-18.072021 16.751465,-37.963135c-1.880188,-25.623291 -12.483948,-31.828186 -14.928833,-33.959229c-2.444763,-2.130981 -5.105835,-3.147278 -8.853699,-3.086182c-0.347534,0.005615 -0.703247,0.023438 -1.047119,0.063171z" id="path3440"/>
  <path fill="url(#linearGradient3751)" fill-rule="evenodd" stroke-miterlimit="4" stroke-dashoffset="0" id="path3719" d="m759.010864,632.581177c-1.809204,3.765381 -2.358582,3.84729 -3.215881,4.626648c-0.971375,0.883057 -3.05072,-1.20105 -4.942749,0.448425c-3.443848,3.00238 -6.361511,-1.070801 -9.540466,-2.483643c-3.178955,-1.412903 -3.177063,0.085693 -5.119812,0.703796c-1.942688,0.618164 -2.022095,0.879822 -4.223206,-0.782654c-0.506714,-0.38269 -0.746277,-2.577576 -1.6875,-5.09375c-1.327209,13.261597 0.530579,27.093689 8.53125,37.75c3.618164,5.02002 11.216675,5.744507 15.4375,1.03125c5.567505,-4.567749 9.920715,-10.461548 12.78125,-17c-0.31842,0.105469 -0.651794,0.216125 -1,0.28125c-6.87616,-0.076721 -7.650146,-9.026672 -7.75,-14.25c0.201294,-2.414429 0.205566,-2.509827 0.729614,-5.231323z"/>
  <path fill="#b3b3b3" fill-rule="evenodd" stroke-width="2.236782" marker-start="none" marker-mid="none" marker-end="none" stroke-miterlimit="4" stroke-dashoffset="0" id="path3442" d="m771.550537,636.11908a5.119245,13.471401 0 1 1 -10.238403,-0.655334a5.119245,13.471401 0 1 1 10.238403,0.655334z"/>
  <path fill="#878787" fill-rule="evenodd" marker-start="none" marker-mid="none" marker-end="none" stroke-miterlimit="4" stroke-dashoffset="0" id="path3444" d="m747.23175,586.748718c-12.222107,0.072876 -22.538818,21.638 -23.033447,48.139648c-0.494568,26.50177 9.020935,47.949768 21.24292,47.876953c7.88623,-0.046936 14.976685,-9.040771 19.150818,-22.537231c-3.377625,5.005188 -6.872986,8.432007 -8.543884,9.721375c-3.965027,3.059814 -5.729431,4.06488 -8.884521,4.116333c-11.120178,0.181274 -19.731262,-17.404114 -19.218872,-39.245483c0.496399,-21.158997 9.362427,-38.585754 20.026611,-39.819641c0.343933,-0.039734 0.70343,-0.062378 1.050903,-0.068054c3.747986,-0.061157 6.410522,0.96344 8.855286,3.094421c1.006775,0.877563 3.399475,2.440125 5.994385,5.770569c-3.867004,-10.457397 -9.836426,-17.089355 -16.640198,-17.048889zm16.737488,17.000244l-0.029175,0.145935c0.009766,0.012695 0.019409,0.026184 0.029175,0.038879l0,-0.184814z"/>
  <path fill="#cccccc" fill-rule="evenodd" marker-start="none" marker-mid="none" marker-end="none" stroke-miterlimit="4" stroke-dashoffset="0" id="path3462" d="m681.2453,619.912292c-5.03064,-0.040955 -11.421448,1.807922 -20.376831,2.919312c-13.7229,1.70282 -55.71051,5.176941 -55.71051,5.176941l-11.005859,0.875732c-37.872498,2.642273 -85.438843,-0.437866 -85.438843,-0.437866c0,0 -4.395782,3.96759 -6.597687,6.169495c-2.201904,2.201904 -3.089783,14.527771 -2.208984,21.573853c0.880798,7.046021 4.408173,13.156372 4.408173,13.156372l0.873627,0.700073c0.000092,0 65.625092,2.000671 99.093842,-0.641663c33.46875,-2.642273 76.183899,-9.253906 83.229919,-12.776855c7.046021,-3.52301 8.368774,-13.652405 8.368713,-17.175415c0,-3.52301 -4.308716,-14.375366 -5.838684,-15.958984c-2.549316,-2.638855 -5.354858,-3.55304 -8.796875,-3.580994z"/>
  <path fill="#333333" fill-rule="evenodd" stroke-linecap="square" stroke-linejoin="round" marker-start="none" marker-mid="none" marker-end="none" stroke-miterlimit="4" stroke-dashoffset="0" id="path8082" d="m446.901367,616.311707c-0.231567,0.021973 -0.463531,0.041443 -0.700623,0.068115c0.238129,-0.026855 0.468109,-0.046082 0.700623,-0.068115z"/>
  <path fill="#333333" fill-rule="evenodd" stroke-linecap="square" stroke-linejoin="round" marker-start="none" marker-mid="none" marker-end="none" stroke-miterlimit="4" stroke-dashoffset="0" id="path8080" d="m453.392029,616.68158c0.141998,0.040894 0.278534,0.089783 0.418396,0.136169c-0.139862,-0.046387 -0.276398,-0.095398 -0.418396,-0.136169z"/>
  <path fill="#999999" fill-rule="evenodd" marker-start="none" marker-mid="none" marker-end="none" stroke-miterlimit="4" stroke-dashoffset="0" id="path3468" d="m486.759918,584.345215c-0.330292,0 -0.672089,0.068359 -1.00238,0.233521c-1.321106,0.660583 -5.9953,3.515991 -8.417297,5.332581c-2.422119,1.816528 -3.794922,4.520996 -3.629761,7.823792c0.165161,3.302856 2.909241,71.889832 6.432251,75.522949c3.52301,3.633118 8.703094,5.008667 12.611481,3.357178c3.472687,-1.467285 10.521973,-5.814941 12.124969,-6.811707l-0.564423,-0.457397c0,0 -3.527374,-6.110352 -4.408173,-13.156372c-0.880798,-7.046082 0.00708,-19.371948 2.208984,-21.573853c2.14975,-2.149719 6.281372,-5.882202 6.480865,-6.062378l0.009705,-0.107117c0,0 -2.526794,-5.226501 -4.398376,-11.33667c-1.871613,-6.110229 -3.367004,-12.776978 -3.367004,-12.776978c0,0 -2.64212,-0.27179 -3.68808,-3.629639c-1.045837,-3.357849 0.885559,-7.814087 0.885559,-7.814087c0,0 -0.277313,-1.431885 -1.15799,-2.257629c-0.880798,-0.825745 -6.434052,-4.516418 -7.424835,-5.176941c-0.743195,-0.495422 -1.704681,-1.109253 -2.695496,-1.109253z"/>
  <path fill="#333333" fill-rule="evenodd" stroke-linecap="square" stroke-linejoin="round" marker-start="none" marker-mid="none" marker-end="none" stroke-miterlimit="4" stroke-dashoffset="0" id="path8062" d="m380.778687,653.465088c4.788605,18.858582 14.285004,34.141663 26.945343,42.40802l0,0.01947c11.394135,7.73175 25.160706,10.526672 36.676483,11.297729c9.667694,0.6474 23.314209,-0.045044 30.234436,-0.486572c18.734039,-0.387573 36.449646,-14.470947 48.129944,-36.248169c-10.547363,-0.194946 -17.63269,-0.428223 -17.63269,-0.428223l-0.253021,-0.223816c-1.602997,0.996765 -8.652283,5.344421 -12.124969,6.811707c-3.908386,1.651489 -9.08847,0.27594 -12.611481,-3.357178c-0.539215,-0.556091 -1.060699,-2.647705 -1.556976,-5.780273c-29.424622,-1.252441 -69.077362,-7.975342 -97.807068,-14.012695z"/>
  <path fill="#e2e3db" fill-rule="evenodd" marker-start="none" marker-mid="none" marker-end="none" stroke-miterlimit="4" stroke-dashoffset="0" id="path3474" d="m574.612061,590.612c-0.294983,-0.000854 -0.587219,0.004761 -0.875732,0.009705c-0.307739,0.005249 -0.615173,0.018127 -0.914795,0.029236c-7.745422,0.286804 -65.968109,1.922363 -74.802795,2.169983c0.003174,0.014709 0.019501,0.068115 0.019501,0.068115c0,0 -1.931396,4.456238 -0.885559,7.814087c1.045959,3.357849 3.68808,3.629639 3.68808,3.629639c0,0 0.009521,0.037964 0.009796,0.03894c0.093842,-0.003662 63.908722,-2.50824 72.379669,-2.822021c3.61438,-0.133789 7.766052,0.349609 11.112976,1.985168c3.346863,1.63562 6.080078,4.136475 7.784851,9.478088c2.029663,6.359375 2.951965,14.094421 3.600525,22.984802c1.072327,3.630615 12.412231,11.176636 10.879333,-0.797913c-0.674744,-9.248413 -1.465149,-17.21936 -4.106506,-25.495483c-2.529297,-7.92511 -7.733521,-13.204224 -13.370483,-15.958984c-4.954529,-2.421143 -10.092346,-3.121155 -14.51886,-3.133362z"/>
  <path fill="#bababa" fill-rule="evenodd" marker-start="none" marker-mid="none" marker-end="none" stroke-miterlimit="4" stroke-dashoffset="0" d="m542.061646,499.149506c-19.373474,0.065491 -35.167267,13.698944 -36.958649,31.402252c-1.810852,0 -4.287628,0.405457 -4.287628,2.597473c0,2.49884 1.722229,3.056213 4.200043,3.056213c1.265198,18.57843 17.814484,33.610229 38.029083,34.019897c21.038147,0.426392 38.116638,-15.1427 38.116638,-34.759399c0,-19.616638 -17.078491,-35.880249 -38.116638,-36.306641c-0.328796,-0.006714 -0.656067,-0.010925 -0.982849,-0.009796z" id="path3486"/>
  <path fill="#454545" fill-rule="evenodd" stroke-width="3.691166" marker-start="none" marker-mid="none" marker-end="none" stroke-miterlimit="4" stroke-dashoffset="0" d="m573.434265,535.237854a32.318481,31.031969 0 1 1 -64.636932,-1.349182a32.318481,31.031969 0 1 1 64.636932,1.349182z" id="path3488"/>
  <path fill="#d7e3f4" fill-rule="evenodd" stroke-width="4.089699" marker-start="none" marker-mid="none" marker-end="none" stroke-miterlimit="4" stroke-dashoffset="0" id="path3490" d="m566.954285,535.450562a28.198195,28.972319 0 1 1 -56.396423,-1.259644a28.198195,28.972319 0 1 1 56.396423,1.259644z"/>
  <path fill="#b3b3b3" fill-rule="evenodd" stroke-width="5.630242" marker-start="none" marker-mid="none" marker-end="none" stroke-miterlimit="4" stroke-dashoffset="0" d="m602.843506,471.371674a21.858244,19.720503 0 1 1 -43.716492,-0.857422a21.858244,19.720503 0 1 1 43.716492,0.857422z" id="path3505"/>
  <path fill="#454545" fill-rule="evenodd" stroke-width="6.101302" marker-start="none" marker-mid="none" marker-end="none" stroke-miterlimit="4" stroke-dashoffset="0" id="path3499" d="m600.328979,471.503662a19.82708,18.513292 0 1 1 -39.654175,-0.804901a19.82708,18.513292 0 1 1 39.654175,0.804901z"/>
  <path fill="url(#radialGradient3786)" fill-rule="evenodd" marker-start="none" marker-mid="none" marker-end="none" stroke-miterlimit="4" stroke-dashoffset="0" d="m595.704407,472.958069c-0.792847,8.76767 -8.050537,15.776825 -16.80719,15.581268c-9.286072,-0.207428 -16.822693,-8.119202 -16.822693,-17.660278c0,-9.541077 7.536621,-17.116241 16.822693,-16.908813c8.55426,0.191071 15.623901,6.919952 16.68512,15.437653" id="path3501"/>
  <path fill="#5d536c" fill-rule="evenodd" marker-start="none" marker-mid="none" marker-end="none" stroke-miterlimit="4" stroke-dashoffset="0" d="m454.718536,363.700226l37.983887,-86.397186c3.533813,-6.76947 9.900024,-10.441162 18.927551,-11.201996l118.973053,-0.257538c9.913025,0.023346 10.66626,5.898438 9.141968,13.262177l-24.335449,88.972351c-3.500061,9.2323 -9.128906,12.196228 -15.708618,12.36084l-138.286926,-3.09021c-5.424835,-0.011871 -8.960327,-6.704193 -6.695465,-13.648438z" id="path3512"/>
  <path fill="#ffffff" fill-rule="evenodd" stroke-linecap="square" stroke-linejoin="round" marker-start="none" marker-mid="none" marker-end="none" stroke-miterlimit="4" stroke-dashoffset="0" d="m674.98468,379.9104c-1.761536,0.440369 0.055847,-0.07666 -0.078491,-0.041992c-3.412903,0.880737 -36.00061,10.302734 -36.00061,10.302734c-2.517334,0.702484 -4.323425,1.660706 -5.536987,3.075012c-1.213501,1.414337 -1.682617,3.163361 -1.819702,5.00177l-2.792786,27.986603c-0.086975,0.568878 0.146851,1.139252 0.608032,1.483337c0.461121,0.344116 1.074524,0.405792 1.595093,0.160492c0.520447,-0.2453 0.86322,-0.757721 0.891296,-1.332397l2.802612,-28.025543c0.003357,-0.012939 0.006653,-0.025909 0.009705,-0.03894c0.111145,-1.489899 0.406982,-2.438019 1.070374,-3.211243c0.663513,-0.773224 1.836731,-1.49295 4.018921,-2.101929c0.003296,0 0.006531,0 0.009827,0l36.000549,-10.302734c0.773682,-0.19577 0.943909,-0.834747 0.828491,-1.624451c-0.115234,-0.789703 -0.80896,-1.36438 -1.606323,-1.330719l0,0z" id="path3235"/>
  <path fill="#6d6f84" fill-rule="evenodd" marker-start="none" marker-mid="none" marker-end="none" stroke-miterlimit="4" stroke-dashoffset="0" id="path3514" d="m460.287537,362.073303l36.016083,-81.936554c3.350769,-6.419983 9.387207,-9.902069 17.946991,-10.623657l112.809448,-0.244232c9.399475,0.022125 10.113708,5.593872 8.668335,12.577454l-23.074707,84.378754c-3.318726,8.755646 -8.655945,11.566559 -14.894775,11.722656l-131.122711,-2.930664c-5.143799,-0.01123 -8.496155,-6.358063 -6.348663,-12.943756z"/>
  <path fill="#d5e5ff" fill-rule="evenodd" marker-start="none" marker-mid="none" marker-end="none" stroke-miterlimit="4" stroke-dashoffset="0" d="m603.417664,348.977905l9.155457,-63.649445l-40.169922,-2.179779c-4.460083,0.19043 -6.222351,3.34848 -6.539368,8.096283l-13.298645,54.619019l50.852478,3.113922z" id="path3518"/>
  <path fill="#5d536c" fill-rule="evenodd" marker-start="none" marker-mid="none" marker-end="none" stroke-miterlimit="4" stroke-dashoffset="0" d="m478.331024,267.006714c15.605896,-0.389191 10.457245,5.905243 9.688324,10.789276l-22.789551,52.625214l-14.422394,32.918304c-5.974609,11.885315 -11.449738,13.282593 -16.844543,12.99118l-66.056702,-3.523041c-7.546387,0.516754 -6.966034,-4.740723 -3.412994,-12.110413l43.927765,-81.690216c4.165405,-7.219238 8.793976,-9.573975 13.541626,-10.679169l56.368469,-1.321136z" id="path3524"/>
  <path fill="#6d6f84" fill-rule="evenodd" marker-start="none" marker-mid="none" marker-end="none" stroke-miterlimit="4" stroke-dashoffset="0" id="path7919" d="m480.230347,268.853729c-0.440216,-0.001038 -0.901123,0.007324 -1.381836,0.01947l-53.754456,1.27478c-4.527344,1.067444 -8.941132,3.342316 -12.913208,10.314941l-41.892303,78.899628c-3.388092,7.117889 -3.936188,12.195862 3.259979,11.696747l62.989288,3.405884c2.639862,0.14444 5.303528,-0.141541 8.037842,-2.004608c2.026581,-1.970123 4.092896,-4.870819 6.227905,-9.118042l14.421387,-32.920227l22.790283,-52.625702c0.276581,-1.756805 1.122192,-3.694611 1.362366,-5.439667l-0.009796,0.029175c-0.400391,-2.039093 -2.534363,-3.516418 -9.137451,-3.532379z"/>
  <path fill="#d5e5ff" fill-rule="evenodd" id="path3534" d="m419.24826,280.439087c-3.562286,0.011993 -6.853149,0.470551 -9.02063,2.277069l-40.306213,75.91217c-3.388092,7.117889 -3.936188,12.195892 3.259979,11.696777l10.412262,0.564392l0.019379,-0.029205l42.15506,-90.148743c-2.150574,-0.124115 -4.382416,-0.279694 -6.519836,-0.272461zm10.908539,0.506012l-41.464142,90.216858l25.018707,1.352631c4.29715,-17.861053 18.092834,-30.944824 34.438263,-30.944824c3.657288,0 7.185028,0.65155 10.509583,1.868347l0.17514,-0.01001l6.023499,-13.740265l20.240723,-46.748138l-54.941772,-1.994873l0,0.000275zm17.992828,65.723724c-0.811554,0 -1.618835,0.039307 -2.41333,0.116791c-0.247986,0.0242 -0.493378,0.056 -0.739532,0.087585c-0.958893,0.122925 -1.903778,0.294495 -2.831787,0.525482c-0.837982,0.208618 -1.663086,0.465851 -2.471649,0.759033l4.018921,18.936676l5.410461,-0.885529l7.619476,-17.992767c-3.077393,-0.807556 -6.684937,-1.547241 -8.59256,-1.547241l0,-0.000031zm-11.618866,2.880402c-2.680756,1.395935 -5.139618,3.255432 -7.308136,5.498077c-4.017792,4.155182 -7.025391,9.615448 -8.534119,15.803253l19.685944,-3.211243l-3.843689,-18.090088z"/>
  <path fill="#ffffff" fill-rule="evenodd" marker-start="none" marker-mid="none" marker-end="none" stroke-miterlimit="4" stroke-dashoffset="0" id="path3551" d="m422.894379,493.723267c-3.069916,31.423035 -22.931061,55.358704 -44.332977,53.427979c-21.401917,-1.930786 -36.280029,-29.000366 -33.210205,-60.423431c3.069916,-31.422943 22.931,-55.358643 44.332916,-53.427887c21.401978,1.930786 36.280121,29.000397 33.210266,60.42334z"/>
  <path fill="#b3b3b3" fill-rule="evenodd" marker-start="none" marker-mid="none" marker-end="none" stroke-miterlimit="4" stroke-dashoffset="0" d="m418.184174,493.737915c-2.884338,29.918152 -21.545319,52.707458 -41.653931,50.869263c-20.108612,-1.838379 -34.087646,-27.611633 -31.203308,-57.529755c2.88443,-29.918121 21.545319,-52.707458 41.653931,-50.869171c20.108612,1.838287 34.087646,27.611542 31.203308,57.529663z" id="path3553"/>
  <path fill="#878787" fill-rule="evenodd" marker-start="none" marker-mid="none" marker-end="none" stroke-miterlimit="4" stroke-dashoffset="0" id="path3555" d="m396.474915,445.579895c-18.442444,0.356598 -35.020966,19.439514 -37.688446,44.130524c-2.798798,25.905182 10.771393,48.221649 30.283112,49.813324c1.963531,0.160217 3.90799,0.100586 5.828857,-0.15564l0.039001,-0.009766c12.035217,-8.255188 21.287323,-25.287415 23.247467,-45.619293c1.806671,-18.739563 -3.006378,-35.851593 -11.794006,-46.475647c-2.282227,-0.84787 -4.68222,-1.392029 -7.18158,-1.595886c-0.914581,-0.074646 -1.827393,-0.105164 -2.734406,-0.087616z"/>
  <path fill="#ffffff" fill-rule="evenodd" marker-start="none" marker-mid="none" marker-end="none" stroke-miterlimit="4" stroke-dashoffset="0" d="m414.120728,492.755219c-2.070984,21.08963 -15.469482,37.154327 -29.907379,35.858368c-14.437897,-1.295776 -24.474884,-19.463745 -22.4039,-40.553467c2.070984,-21.089722 15.469482,-37.154297 29.907379,-35.858368c14.437927,1.295807 24.474915,19.463776 22.4039,40.553467z" id="path3557"/>
  <path fill="#b3b3b3" fill-rule="evenodd" marker-start="none" marker-mid="none" marker-end="none" stroke-miterlimit="4" stroke-dashoffset="0" id="path3559" d="m382.830658,489.735046c-0.672546,7.044525 -5.023346,12.410461 -9.711731,11.977631c-4.688293,-0.432831 -7.947632,-6.501373 -7.275085,-13.545898c0.672455,-7.044434 5.023346,-12.4104 9.711639,-11.97757c4.688385,0.43277 7.947632,6.501404 7.275177,13.545837z"/>
  <path fill="#e2e3db" fill-rule="evenodd" marker-start="none" marker-mid="none" marker-end="none" stroke-miterlimit="4" stroke-dashoffset="0" id="path3575" d="m339.188049,573.417114c-1.203186,0.071655 -2.729553,1.438416 -2.929047,4.476318c-0.246796,3.75531 2.362854,5.322937 3.707489,5.566223c-0.133545,0.136169 2.829926,1.380493 14.256042,4.018921c10.420197,2.397522 24.60376,4.900146 39.80014,6.753357c29.901245,3.646484 51.719666,6.569153 79.882446,8.397949l0.019501,-0.058411c-0.113922,-2.549744 -0.191559,-4.385803 -0.214142,-4.836365c-0.104126,-2.082703 0.404938,-3.924866 1.401337,-5.459106c-21.544373,-1.405823 -41.642334,-3.961548 -62.858398,-6.54718l-0.114471,-0.056396c-23.647766,4.471558 -40.627838,-2.071899 -49.95639,-7.389709l-0.048584,0.038879c-11.795166,-1.790588 -22.18689,-4.748718 -22.18689,-4.748718c-0.223297,-0.116272 -0.481354,-0.172241 -0.759033,-0.155762z"/>
  <path fill="#999999" fill-rule="evenodd" marker-start="none" marker-mid="none" marker-end="none" stroke-miterlimit="4" stroke-dashoffset="0" id="path3581" d="m332.113556,563.676392c-0.024048,0.002014 -0.045441,0.004028 -0.068207,0.009705c-1.456665,0.364136 -6.558655,1.634766 -6.558655,1.634766l0,0.009705c-3.983093,1.287537 -5.280792,5.832214 -5.099121,8.738586c0.182129,2.913452 2.552338,66.099304 2.734375,69.012756c0.182129,2.913574 2.734863,6.732544 6.558777,6.004089c3.823914,-0.728333 9.828644,-1.455444 12.37793,-1.819641c2.220764,-0.317322 2.782837,-2.289673 2.890228,-2.792786c-0.889587,-0.361084 -1.388672,-0.648926 -1.430573,-0.84668c-0.407928,-1.92688 -6.743591,-10.013672 -6.743591,-13.837524c0,-3.823975 4.559998,-16.213806 7.473419,-19.491455c2.913544,-3.277588 9.390503,-3.435059 9.390503,-3.434998l-11.560486,-22.478821l-0.019501,-0.07782c-1.55838,-0.50293 -2.150299,-0.787292 -2.092163,-0.846619c-1.344635,-0.243286 -3.954285,-1.810913 -3.707489,-5.566223c0.209961,-3.196533 1.887848,-4.531982 3.113892,-4.466492l-2.432739,-4.291504c-1.749207,-2.545532 -3.840729,-5.321167 -4.748779,-5.459045c-0.027222,-0.004211 -0.053833,-0.002075 -0.07782,0z"/>
  <path fill="none" fill-opacity="0.535912" fill-rule="evenodd" marker-start="none" marker-mid="none" marker-end="none" stroke-miterlimit="4" stroke-dashoffset="0" d="m314.242615,563.276367c0,0 0.901306,6.824219 6.116028,9.850098" id="path3587"/>
  <path fill="#cccccc" fill-rule="evenodd" marker-start="none" marker-mid="none" marker-end="none" stroke-miterlimit="4" stroke-dashoffset="0" id="path3591" d="m321.068787,591.925659c0,0 -1.936371,0.254883 -4.447083,5.98468c-2.510864,5.729736 -4.629791,13.460876 -4.758575,15.520996c-0.128754,2.06012 3.985168,12.811218 5.916473,14.742615c1.85379,1.85376 4.536285,4.643494 4.758545,4.875305l0.155731,-0.262756c-0.432007,-10.948669 -1.074493,-27.686829 -1.586182,-40.831665l-0.03891,-0.029175zm1.46936,41.123596l-0.058411,0.09729l0.194641,0.048645c0,0 -0.126892,-0.13623 -0.13623,-0.145935z"/>
  <path fill="#ffffff" fill-rule="nonzero" marker-start="none" marker-mid="none" marker-end="none" stroke-miterlimit="4" stroke-dashoffset="0" d="m816.73114,435.216339c-1.520142,0 -2.832214,1.344879 -3.396118,3.259888l0.652039,-0.11673c-1.190491,0.346619 -2.374146,0.700989 -3.133484,0.836853c-4.680908,0.655457 -7.804016,1.077087 -12.523865,1.37204c-1.578308,0.094147 -3.103516,0.445435 -3.191833,2.024048c-0.088318,1.578735 0.835815,2.240997 2.393921,2.510651c5.218262,-0.099915 10.58844,0.256866 15.783691,-0.233521c0.378174,0.043274 0.791992,0.047852 1.216431,0.029205c0.614075,0.665741 1.37561,1.060699 2.199219,1.060699c2.035461,0 10.023071,-2.591278 10.023071,-5.556519c0.129517,-0.413971 0.1745,-0.863434 0.126526,-1.323425c-0.140808,-1.347229 -1.128357,-2.423981 -2.403625,-2.714996c-1.851929,-1.198883 -6.86377,-1.148193 -7.745972,-1.148193z" id="path3621"/>
  <path fill="#333333" fill-rule="evenodd" stroke-miterlimit="4" stroke-dashoffset="0" d="m1095.322266,550.743774c0.147095,2.308838 0.230225,4.672302 0.253052,7.074463c0.918823,0.406616 2.385498,1.002075 13.701416,5.605103c7.853149,3.123779 16.218384,6.437317 18.294434,7.181519c4.147461,1.486877 11.939575,3.200867 24.249878,4.057861c3.093994,-2.676392 3.016724,-6.374634 0.875732,-6.694946c-12.077515,-0.84082 -19.639038,-2.694824 -23.79248,-4.155151c-2.080444,0.223328 -2.861572,-0.442078 -3.269653,-1.0802l-0.194702,-0.068115c-3.664673,-1.426086 -9.60437,-3.746765 -15.034424,-5.906738c-7.796387,-3.101196 -14.978882,-5.972107 -15.083252,-6.013794z" id="path4289"/>
  <path fill="#6a6a6a" fill-rule="nonzero" marker-start="none" marker-mid="none" marker-end="none" stroke-miterlimit="4" stroke-dashoffset="0" d="m1134.80127,530.756042c-0.233643,1.336182 -0.466309,2.675293 -0.710327,4.009277c2.014893,-0.477295 4.127075,-1.011841 5.186646,-1.342896c2.060181,-0.643799 0.001587,-1.418518 -0.642212,-1.547241c-0.513794,-0.102722 -2.809814,-0.802734 -3.834106,-1.119141z" id="path4324"/>
  <path fill="#918a6f" fill-rule="nonzero" marker-start="none" marker-mid="none" marker-end="none" stroke-miterlimit="4" stroke-dashoffset="0" id="path6924" d="m811.340149,612.701599c2.073425,-4.686523 -0.033386,0.223328 -1.98645,-0.880432l-2.402222,1.950806c0.199585,0.549683 3.028503,8.347961 3.045715,8.991516c0.813538,-0.881165 1.313416,-9.538086 1.342957,-10.06189z"/>
  <path fill="#b3b3b3" fill-rule="evenodd" stroke-width="3.211359" marker-start="none" marker-mid="none" marker-end="none" stroke-miterlimit="4" stroke-dashoffset="0" id="path3878" d="m1078.160034,571.088257a3.468036,9.654265 0 1 1 -6.935913,-0.428345a3.468036,9.654265 0 1 1 6.935913,0.428345z"/>
  <path fill="#b3b3b3" fill-rule="nonzero" marker-start="none" marker-mid="none" marker-end="none" stroke-miterlimit="4" stroke-dashoffset="0" id="path7092" d="m317.692078,557.098083c1.077972,0.358215 2.24231,2.059814 2.500854,3.921692c0.198639,1.430481 0.584747,3.887207 2.816956,5.898376c0.738342,-0.820129 1.302734,-1.208008 2.476807,-1.587585l0,-0.009705c0,0 0.370972,-0.097595 0.408661,-0.106995l0,-0.009827c0,0.000122 -1.742462,-0.832825 -3.094452,-4.11615c-1.318207,-3.201355 -2.031158,-3.954224 -5.108826,-3.989807z"/>
  <path fill="#ababab" fill-rule="evenodd" marker-start="none" marker-mid="none" marker-end="none" stroke-miterlimit="4" stroke-dashoffset="0" id="path7121" d="m312.281616,615.708435c1.07785,3.897156 3.969666,10.937195 5.497986,12.465515c1.85379,1.85376 4.536285,4.643494 4.758545,4.875305l0.155731,-0.262756c-0.109436,-2.773682 -0.268066,-6.979858 -0.398956,-10.344177c-4.502441,-2.454651 -7.732758,-4.703125 -10.013306,-6.733887zm10.256531,17.34082l-0.058411,0.09729l0.194641,0.048645c0,0 -0.126892,-0.13623 -0.13623,-0.145935zm14.392303,-4.797485c-0.100403,0.597717 -0.155731,1.120605 -0.155731,1.537598c0,3.823853 6.335663,11.910645 6.743591,13.837524c0.568604,2.685791 83.532806,21.65741 135.067444,23.850891c-0.55423,-3.498413 -1.075348,-8.331055 -1.556976,-13.798645c-30.829712,-2.842834 -105.768677,-14.835938 -140.098328,-25.427368zm358.872589,12.903381c-73.221313,16.164429 -159.491028,14.456055 -196.052185,13.477661c0.044495,0.538757 0.094147,1.064514 0.155731,1.556946c0.880798,7.046021 4.408173,13.156372 4.408173,13.156372l0.875763,0.700745c0,-0.000122 65.622955,2 99.091705,-0.642334c33.46875,-2.642273 76.183899,-9.253906 83.229919,-12.776855c6.121643,-3.060913 7.923523,-11.10321 8.290894,-15.472534z"/>
  <path fill="none" fill-opacity="0.535912" fill-rule="evenodd" marker-start="none" marker-mid="none" marker-end="none" stroke-miterlimit="4" stroke-dashoffset="0" d="m334.765961,340.465637c-0.187195,-1.985046 0.552826,-4.695557 1.379974,-4.77359l4.702759,-0.443512c0.827057,-0.077972 1.43988,1.487183 1.830811,3.442291c0.524841,2.624237 2.940216,27.307312 2.940216,27.307312c0.187286,1.985016 -0.32785,3.645844 -1.154999,3.723846l-3.436066,0.394775" id="rect3641"/>
  <path fill="#bbbfb0" fill-rule="nonzero" marker-start="none" marker-mid="none" marker-end="none" stroke-miterlimit="4" stroke-dashoffset="0" opacity="0.627049" d="m1110.152466,504.744904c-0.325928,0.011383 -0.666016,0.039276 -1.021729,0.087524c-5.690796,0.772552 -52.145996,9.950409 -58.970337,10.821014c-6.671021,0.851074 -11.047852,6.678772 -11.755249,9.92572c-2.475342,7.17688 -2.285767,9.899902 -3.182007,16.416321c2.022095,-6.047668 2.443237,-7.244263 4.797485,-14.100342c0.704102,-3.246887 4.802612,-6.495972 11.443726,-7.346985c6.793823,-0.870544 52.020386,-9.532593 57.685791,-10.305176c5.665405,-0.772552 5.669434,-0.25769 6.441895,3.347412c0.727173,3.392822 1.340698,17.635376 1.839355,24.035828c0.084595,-0.344971 0.126343,-0.644104 0.107056,-0.856262c-0.517456,-5.665466 0.639771,-21.374512 -0.13623,-24.979797c-0.727539,-3.379883 -2.359375,-7.216003 -7.249756,-7.045258z" id="path4239"/>
  <path fill="none" fill-rule="evenodd" marker-start="none" marker-mid="none" marker-end="none" stroke-miterlimit="4" stroke-dashoffset="0" id="path6915" d="m827.902405,521.779297c-0.00116,-0.037109 -0.131348,-0.438354 -0.467041,-0.365112l-92.172852,15.569824c-12.374084,0.552429 -14.760742,9.427795 -17.438049,18.060791l-14.94696,41.726929c-10.475525,21.969116 -8.805115,18.112244 -26.595093,21.174866c-7.410156,1.275696 -42.383362,6.334778 -66.200439,6.227844"/>
  <path fill="#6d6f84" fill-rule="evenodd" marker-start="none" marker-mid="none" marker-end="none" stroke-miterlimit="4" stroke-dashoffset="0" id="path7900" d="m877.530945,278.244232l-59.398438,0.155701c-0.295166,1.492523 -0.217712,3.508392 0.301636,6.188965l0.01001,-0.058411l24.522278,0.418457c2.502991,-0.200378 3.193909,1.130005 2.637207,3.522644l-16.805664,50.222107c2.008118,12.892731 4.11615,27.081604 4.116272,27.081604c0.397461,1.922699 0.785217,4.280029 2.004639,6.081909c1.1026,0.232971 2.625244,0.322876 5.00177,0.243286l54.445435,-2.899841c8.327271,-0.554047 7.779663,-3.868408 7.259399,-9.332123c-1.138916,-6.007874 -2.285522,-12.058105 -3.454651,-18.138733l-2.695496,0.03891c-1.963135,0.045593 -2.106628,-1.182556 -2.024048,-2.569031l0.934204,-16.581757l0.01947,0c-2.425293,-11.871887 -5.046448,-23.781769 -8.028137,-35.615753c-1.076172,-4.232361 -1.163696,-8.548401 -8.845581,-8.757965l-0.000305,0.000031zm-51.049255,46.05722c0.113892,0.674866 0.2453,1.42392 0.369873,2.179749c-0.127747,-0.773407 -0.25354,-1.492126 -0.369873,-2.179749zm119.663147,17.28241c-17.209961,0.028198 -30.01123,0.173126 -30.195496,0.17514c1.199219,7.72348 2.39093,15.338715 3.113831,19.695709l1.333191,4.252502c2.426575,1.75293 6.013123,1.62381 9.332153,1.518036c3.079834,-0.098206 39.637146,-2.073364 44.578064,-2.384125c4.940979,-0.31076 4.284241,-6.939301 3.405945,-12.222229c-0.217957,-1.310822 -0.977844,-5.404846 -2.024048,-10.937744c-7.460876,-0.060303 -14.922729,-0.093903 -21.924194,-0.09729c-2.614746,-0.001007 -5.160828,-0.003998 -7.619446,0zm46.436707,0.321106l-0.009949,0.029205c1.150879,6.419739 2.205017,12.430695 2.753784,15.968719c0.284729,1.824493 0.801941,3.20813 1.469421,4.262207c5.048706,-0.328247 40.754028,-2.413269 44.947876,-2.354919c6.055786,0.085724 6.118774,-3.289001 5.303467,-7.230194l-0.029053,-0.019501c-4.001099,-4.605408 -10.662231,-8.626007 -21.739136,-9.478058c-7.941284,-0.61087 -19.562439,-0.956512 -32.696472,-1.17746l0.000061,0z"/>
  <path fill="#d5e5ff" fill-rule="evenodd" stroke-linecap="square" stroke-linejoin="round" marker-start="none" marker-mid="none" marker-end="none" stroke-miterlimit="4" stroke-dashoffset="0" id="path3201" d="m907.648621,278.964325c-1.036804,0.012268 -1.886047,0.210449 -2.56897,0.535217l-0.009705,0c-0.807129,3.245422 0.398987,7.33725 0.398987,7.33725c-0.220154,0 5.830078,24.555908 6.490601,28.959686c0.391479,2.609924 2.204224,14.46286 3.989807,25.962524c0.210693,-0.002289 16.897217,-0.185333 37.814941,-0.17514c7.001465,0.003387 14.463318,0.037048 21.924194,0.09729c-3.17041,-16.766083 -8.979675,-46.871399 -10.383118,-53.803162c-1.866516,-9.219269 -10.208191,-8.076813 -11.745483,-8.076782c-1.537109,0 -36.999329,-0.516388 -45.453857,-0.827148c-0.156128,-0.005737 -0.309204,-0.011475 -0.457397,-0.009735zm74.948853,2.247894c-0.832153,3.083893 0.291992,7.142609 0.291992,7.142609c-0.193542,0 4.246155,22.186157 4.826538,26.322571c0.373596,2.662415 2.776917,15.661194 4.855835,27.256775l0.009705,-0.029205c13.134155,0.220978 24.755249,0.56662 32.696411,1.17746c11.076904,0.852081 17.738159,4.872681 21.739258,9.478088l0.029175,0.01944c-0.21582,-1.042999 -0.496094,-2.122467 -0.739624,-3.191772c-1.116211,-4.903503 -10.185913,-51.648926 -11.910767,-60.293793c-1.640015,-8.220032 -6.794312,-7.278839 -8.144897,-7.278839c-1.118652,0 -29.606873,-0.323914 -43.653625,-0.603333zm-164.153625,3.318298l-0.009705,0.05838c0.038269,0.197662 0.073608,0.388519 0.116699,0.593597c0,0 5.550232,25.544098 7.53186,36.773773c0.672485,3.810089 1.683777,10.11673 2.714966,16.737457l22.342834,0.508057c0.29425,-0.007416 8.150085,-51.119934 7.966736,-51.259766c0.556763,-2.392609 -1.987671,-3.193451 -4.490601,-2.993073l-36.172791,-0.418427zm72.631592,21.935699l-2.787659,32.733521c-0.082642,1.386475 0.060852,2.614624 2.024048,2.569l7.858704,-0.03891c-1.219666,-6.344421 -2.461121,-12.724915 -3.765869,-19.111847l-3.329224,-16.151764zm155.990356,51.018219c-0.031616,0.0755 -0.060547,0.151276 -0.09729,0.223816c0.037354,-0.073425 0.065308,-0.147339 0.09729,-0.223816zm-2.267334,1.946228c-0.082153,0.026917 -0.15625,0.05365 -0.243164,0.07785c0.083496,-0.023376 0.164063,-0.051971 0.243164,-0.07785z"/>
  <path fill="#d5e5ff" fill-rule="nonzero" marker-start="none" marker-mid="none" marker-end="none" stroke-miterlimit="4" stroke-dashoffset="0" id="path7959" d="m494.807465,284.345612l-34.516083,77.731903c-0.348785,1.06958 -0.558075,2.131744 -0.632507,3.162598l53.812805,-7.31778l16.864929,-66.47583c0.972656,-3.587708 -0.115723,-6.030304 -5.479675,-6.097656l-30.049469,-1.003235z"/>
  <path fill="#6d6f84" fill-rule="evenodd" marker-start="none" marker-mid="none" marker-end="none" stroke-miterlimit="4" stroke-dashoffset="0" id="path7946" d="m466.460876,348.045288l-2.296509,5.225586l0.029114,0c4.900635,4.158051 8.557831,10.242584 10.509583,17.34079c0,0 0.308197,1.924866 0.632507,4.602814l7.230194,0.165405c-0.287292,-2.797272 -0.583801,-5.614838 -0.583801,-5.614807c-2.950012,-9.178223 -8.47525,-16.843018 -15.521088,-21.719788z"/>
  <path fill="#d5e5ff" fill-rule="evenodd" stroke-linecap="square" stroke-linejoin="round" marker-start="none" marker-mid="none" marker-end="none" stroke-miterlimit="4" stroke-dashoffset="0" id="path3209" d="m736.945984,284.618103l-14.421387,64.847931c-0.000061,0 22.673035,0.437897 26.196045,0.437897c3.380676,0 6.758362,1.423401 7.609619,3.483734l-12.192932,-68.633331l-7.191345,-0.13623z"/>
  <path fill="#a1a29c" fill-rule="evenodd" marker-start="none" marker-mid="none" marker-end="none" stroke-miterlimit="4" stroke-dashoffset="0" id="path8094" d="m336.249207,578.42865c0.020813,3.37146 2.438171,4.799561 3.717285,5.031006c-0.133545,0.136169 2.829926,1.380493 14.256042,4.018921c10.420197,2.397522 24.60376,4.900146 39.80014,6.753357c29.901245,3.646484 51.719666,6.569153 79.882446,8.397949l0.019501,-0.058411c-0.110931,-2.482971 -0.179626,-4.200867 -0.204346,-4.709839c-1.107819,-0.107422 -2.268982,-0.216003 -3.503235,-0.321167l-0.019501,0.058411c-28.162781,-1.828796 -49.981201,-4.751404 -79.882416,-8.397888c-15.196289,-1.853271 -29.379944,-4.355774 -39.80014,-6.753418c-11.426117,-2.638428 -14.389587,-3.88269 -14.255981,-4.018921c-0.00296,-0.000488 -0.006805,0.000549 -0.009796,0z"/>
  <path fill="#5d536c" fill-rule="evenodd" stroke-linecap="square" stroke-linejoin="round" marker-start="none" marker-mid="none" marker-end="none" stroke-miterlimit="4" stroke-dashoffset="0" id="path2484" d="m674.98822,379.914581c-0.02887,0.007202 -0.02179,0.003021 -0.048645,0.009735c0.026672,0.082367 0.045532,0.164703 0.058411,0.252991c0.115356,0.789734 -0.053467,1.429321 -0.827148,1.625122l-35.995239,10.305176c-0.003296,0 -0.006531,0 -0.009827,0c-2.18219,0.608978 -3.35553,1.328705 -4.018921,2.101929c-0.663452,0.773224 -0.959351,1.721344 -1.070374,3.211273c-0.003113,0.013031 -0.006348,0.02597 -0.009827,0.03894l-2.80249,28.025543c-0.028076,0.574646 -0.374817,1.08783 -0.895264,1.33313c-0.177246,0.083588 -0.365479,0.122986 -0.554688,0.13623c0.097961,0.300354 0.292236,0.563171 0.554688,0.759033c0.461243,0.344116 1.065735,0.410736 1.586182,0.165436c0.520447,-0.245392 0.867065,-0.758484 0.895264,-1.33316l2.80249,-28.025543c0.003479,-0.012939 0.006775,-0.025909 0.009827,-0.03894c0.111023,-1.489899 0.406921,-2.438019 1.070374,-3.211243c0.663391,-0.773224 1.836731,-1.49295 4.018921,-2.101929c0.003296,0 0.006531,0 0.009705,0l36.005066,-10.305206c0.773682,-0.195801 0.942505,-0.835388 0.827148,-1.625092c-0.115295,-0.789703 -0.808289,-1.357056 -1.605652,-1.323425z"/>
  <path fill="#cbcbcb" fill-rule="evenodd" marker-start="none" marker-mid="none" marker-end="none" stroke-miterlimit="4" stroke-dashoffset="0" d="m341.757751,393.337799c-0.002716,-0.740875 -0.006165,-1.481842 -0.010437,-2.222748c-0.032288,-5.352753 -0.111969,-10.802338 -0.282257,-15.131836c-0.085083,-2.164734 -0.192383,-4.045715 -0.33078,-5.517517c-0.069214,-0.735901 -0.151428,-1.373199 -0.243317,-1.907288c-0.091827,-0.534119 -0.153503,-0.920135 -0.408691,-1.430481c-1.63797,-3.275879 -7.178894,-13.366486 -7.178894,-13.366486c-0.278687,-0.516663 -0.824158,-0.832703 -1.411041,-0.817413c-0.551239,0.013733 -1.054138,0.317993 -1.322113,0.799957c-0.267975,0.481964 -0.261078,1.069733 0.018188,1.545227c0,0 5.658478,10.325745 7.110748,13.230255c-0.062042,-0.124054 0.056183,0.165192 0.126556,0.574158c0.070343,0.408966 0.139771,0.977509 0.204315,1.664001c0.12915,1.372986 0.237274,3.219513 0.321167,5.352081c0.167664,4.265167 0.250061,11.758453 0.282135,17.092682m-0.016968,13.452087c-0.023804,3.317474 0.039948,1.79892 0.039948,1.79892c-0.010742,0.558716 0.278778,1.080292 0.758453,1.36673c0.479797,0.286438 1.076263,0.293915 1.562958,0.019501c0.486755,-0.274414 0.789185,-0.788513 0.792542,-1.347321c0,0 -0.064117,1.451996 -0.040405,-1.834747" id="path3605"/>
  <path fill="#ababab" fill-rule="evenodd" marker-start="none" marker-mid="none" marker-end="none" stroke-miterlimit="4" stroke-dashoffset="0" id="path3259" d="m1153.378052,546.744263c-0.420044,1.11322 -2.306396,1.294189 -2.306396,1.294189c0,0 -22.506958,4.49585 -25.154907,4.49585c-1.777588,0 -2.681763,0 -3.736694,0c-0.026733,0.32373 -0.041992,0.610352 -0.029175,0.827148c0.128784,2.188843 2.834717,8.131287 3.221069,8.90387c0.386353,0.772583 1.03125,2.064636 4.378906,1.420776c3.347778,-0.643799 15.836792,-3.097534 17.253296,-3.483765c1.41626,-0.386292 1.719238,-0.92511 3.006836,-3.113953c1.287476,-2.188904 3.39624,-6.176758 3.435059,-9.351563c0.003662,-0.285034 -0.020752,-0.627869 -0.067993,-0.992554z"/>
  <path fill="url(#linearGradient3755)" fill-rule="evenodd" d="m1070.130249,569.44519c-1.146729,2.350891 -1.494995,2.402039 -2.038452,2.888672c-0.615601,0.551331 -1.933594,-0.749878 -3.132935,0.279907c-2.182861,1.874573 -4.032349,-0.668518 -6.047363,-1.550659c-2.014893,-0.88208 -2.013794,0.053528 -3.245117,0.439453c-1.231567,0.385925 -1.281738,0.549316 -2.67688,-0.488647c-0.321411,-0.238953 -1.532837,-1.256104 -2.129395,-2.827087c-0.841309,8.279907 -0.01709,17.622375 5.054321,24.275696c2.293457,3.134216 8.522705,2.526917 11.19812,-0.415833c3.529053,-2.851807 6.288452,-6.531616 8.101563,-10.613953c-0.201904,0.065796 -0.413208,0.134949 -0.633911,0.175598c-4.358398,-0.047913 -4.848999,-5.635803 -4.912354,-8.896973c0.127563,-1.507446 0.130249,-1.567017 0.462402,-3.266174z" id="path3753"/>
  <path fill="url(#linearGradient3792)" fill-rule="evenodd" d="m383.973083,484.999695c1.237061,3.990082 1.768463,4.151764 2.502106,5.048523c0.831268,1.016022 3.193909,-0.740417 4.823395,1.168854c2.966003,3.47525 6.449799,-0.125641 9.801666,-1.056702c3.351898,-0.931061 3.130127,0.550995 4.96109,1.44754c1.830963,0.896515 1.871124,1.167053 4.292389,-0.154449c0.557373,-0.304199 1.116425,-2.440125 2.416748,-4.790955c0.79422,13.516754 -4.453552,26.729218 -13.978668,36.089325c-4.315735,4.434692 -11.938293,4.036316 -15.421722,-1.245361c-9.14093,4.337769 -22.5466,-12.341705 -20.479767,-32.555359c-0.64801,1.628937 1.513031,-1.404724 1.72226,1.049011c0.415375,4.871338 1.575775,7.529816 3.158783,9.828949c1.409729,2.047455 4.646729,4.170319 8.871033,2.704346c3.45108,-1.197632 6.419403,-7.099854 7.284729,-12.251984c0.155151,-2.417786 0.164948,-2.512787 0.045898,-5.281738l0.000061,0z" id="path3790"/>
  <path fill="url(#radialGradient3843)" fill-rule="evenodd" id="path3841" d="m591.852417,474.260529c-0.550171,5.971558 -5.586731,10.745392 -11.663513,10.612213c-6.444214,-0.141266 -11.674316,-5.529877 -11.674316,-12.028198c0,-6.498322 5.230103,-11.657654 11.674316,-11.516388c5.93634,0.130157 10.842346,4.713104 11.578796,10.514404"/>
  <path opacity="0.606557" fill="#ff7f00" fill-opacity="0.616667" stroke-width="3.9" filter="url(#filter3863)" d="m584.609192,458.372101a9.03925,6.781873 0 1 1 -18.078552,15.579224a9.03925,6.781873 0 1 1 18.078552,-15.579224z" id="path3853"/>
  <path opacity="0.92623" fill="#ffffff" fill-opacity="0.616667" stroke-width="3.9" filter="url(#filter3863)" id="path3867" d="m553.006409,517.050903a16.296032,14.079924 0 1 1 -32.592102,32.344177a16.296032,14.079924 0 1 1 32.592102,-32.344177z"/>
  <path fill="#76705a" fill-rule="nonzero" id="path3893" d="m1087.334351,392.17749c0,0 0.095947,2.772766 0.845215,3.194061c1.335449,0.750763 2.603516,0.304199 4.675781,0.135712c2.956055,-0.240387 22.414185,-1.585815 24.158936,-1.728577c1.744629,-0.142731 2.679321,-1.221375 2.666992,-3.772308l-0.13501,-0.133606l-32.211914,2.304718z"/>
  <path fill="#76705a" fill-rule="nonzero" d="m1087.853516,401.522491c0,0 0.095947,2.772766 0.845215,3.194061c1.335449,0.750732 2.603516,0.304199 4.675781,0.135712c2.956055,-0.240387 22.414185,-1.585815 24.158936,-1.728577c1.744629,-0.142731 2.679321,-1.221375 2.666992,-3.772308l-0.13501,-0.133606l-32.211914,2.304718z" id="path3895"/>
  <path fill="#76705a" fill-rule="nonzero" d="m1091.487549,418.654968c0,0 0.095947,2.772797 0.845215,3.194061c1.335449,0.750763 2.603516,0.304199 4.675781,0.135712c2.956055,-0.240387 22.414185,-1.585815 24.158936,-1.728546c1.744629,-0.142761 2.679321,-1.221405 2.666992,-3.772339l-0.13501,-0.133606l-32.211914,2.304718z" id="path3897"/>
  <path fill="#76705a" fill-rule="nonzero" id="path3899" d="m1092.006836,427.999969c0,0 0.095947,2.772766 0.845215,3.194061c1.335449,0.750763 2.603516,0.304199 4.675781,0.135712c2.956055,-0.240387 22.414185,-1.585815 24.158936,-1.728577c1.744629,-0.142731 2.679321,-1.221375 2.666992,-3.772308l-0.13501,-0.133606l-32.211914,2.304718z"/>
  <path opacity="0.668033" fill="#ffffff" fill-opacity="0.616667" stroke-width="3.9" filter="url(#filter3863)" id="path3917" d="m590.454285,477.436768a2.678094,2.009292 0 1 1 -5.356201,4.615723a2.678094,2.009292 0 1 1 5.356201,-4.615723z"/>
 </g>
</svg>