<?xml version="1.0"?>
<svg version="1.1" xmlns="http://www.w3.org/2000/svg" xmlns:xlink="http://www.w3.org/1999/xlink" width="640" height="480">
    <desc iVinci="yes" version="4.6" gridStep="20" showGrid="no" snapToGrid="no" codePlatform="0"/>
    <g id="Layer1" name="Layer 1" opacity="1">
        <g id="Shape1">
            <desc shapeID="1" type="0" basicInfo-basicType="2" basicInfo-roundedRectRadius="12" basicInfo-polygonSides="6" basicInfo-starPoints="5" bounding="rect(-162.5,-162.5,325,325)" text="" font-familyName="Helvetica" font-pixelSize="20" font-bold="0" font-underline="0" font-alignment="1" strokeStyle="0" markerStart="0" markerEnd="0" shadowEnabled="0" shadowOffsetX="0" shadowOffsetY="2" shadowBlur="4" shadowOpacity="160" blurEnabled="0" blurRadius="4" transform="matrix(1,0,0,1,320,240)" pers-center="0,0" pers-size="0,0" pers-start="0,0" pers-end="0,0" locked="0" mesh="" flag=""/>
            <path id="shapePath1" d="M157.5,89.5 C157.5,82.8726 162.873,77.5 169.5,77.5 L470.5,77.5 C477.127,77.5 482.5,82.8726 482.5,89.5 L482.5,390.5 C482.5,397.127 477.127,402.5 470.5,402.5 L169.5,402.5 C162.873,402.5 157.5,397.127 157.5,390.5 L157.5,89.5 Z" style="stroke:url(#linearGradientStroke1);stroke-width:0;stroke-linejoin:miter;stroke-miterlimit:2;stroke-linecap:round;fill-rule:evenodd;fill:#34495e;fill-opacity:1;"/><defs><linearGradient id="linearGradientStroke1" gradientUnits="userSpaceOnUse" x1="207" y1="240" x2="433" y2="240"><stop offset="0.230088" stop-color="#aac7ff" stop-opacity="1"/><stop offset="0.429203" stop-color="#ffffff" stop-opacity="1"/></linearGradient></defs>
        </g>
        <g id="Shape2">
            <desc shapeID="2" type="0" basicInfo-basicType="4" basicInfo-roundedRectRadius="12" basicInfo-polygonSides="6" basicInfo-starPoints="5" bounding="rect(-155,-155,310,310)" text="" font-familyName="Yuanti SC" font-pixelSize="100" font-bold="0" font-underline="0" font-alignment="1" strokeStyle="0" markerStart="0" markerEnd="0" shadowEnabled="0" shadowOffsetX="0" shadowOffsetY="2" shadowBlur="4" shadowOpacity="160" blurEnabled="0" blurRadius="4" transform="matrix(1,0,0,1,320,235.5)" pers-center="0,0" pers-size="0,0" pers-start="0,0" pers-end="0,0" locked="0" mesh="" flag=""/>
            <path id="shapePath2" d="M165,235.5 C165,149.896 234.396,80.5 320,80.5 C405.604,80.5 475,149.896 475,235.5 C475,321.104 405.604,390.5 320,390.5 C234.396,390.5 165,321.104 165,235.5 Z" style="stroke:none;fill-rule:evenodd;fill:url(#radialGradientFill2);fill-opacity:1;"/><defs><radialGradient id="radialGradientFill2" gradientUnits="userSpaceOnUse" cx="168.5" cy="235.5" r="303" fx="168.5" fy="235.5"><stop offset="0" stop-color="#2c3e50" stop-opacity="1"/><stop offset="1" stop-color="#34495e" stop-opacity="1"/></radialGradient></defs>
        </g>
        <g id="Shape3">
            <desc shapeID="3" type="2" basicInfo-basicType="0" basicInfo-roundedRectRadius="12" basicInfo-polygonSides="6" basicInfo-starPoints="5" bounding="rect(-142.5,-76.5,285,153)" text="split" font-familyName="Yuanti SC" font-pixelSize="100" font-bold="0" font-underline="0" font-alignment="1" strokeStyle="0" markerStart="0" markerEnd="0" shadowEnabled="0" shadowOffsetX="0" shadowOffsetY="2" shadowBlur="4" shadowOpacity="160" blurEnabled="0" blurRadius="4" transform="matrix(1,0,0,1,273.468,235.116)" pers-center="0,0" pers-size="0,0" pers-start="0,0" pers-end="0,0" locked="0" mesh="" flag=""/>
            <path id="shapePath3" d="M201.081,265.7 C204.281,265.7 206.997,264.867 209.231,263.2 C211.464,261.533 212.581,259.4 212.581,256.8 C212.581,255.6 212.397,254.55 212.031,253.65 C211.664,252.75 210.997,251.917 210.031,251.15 C209.064,250.383 207.714,249.65 205.981,248.95 C204.247,248.25 202.014,247.533 199.281,246.8 C196.481,246.067 194.064,245.3 192.031,244.5 C189.997,243.7 188.314,242.767 186.981,241.7 C185.647,240.633 184.664,239.35 184.031,237.85 C183.397,236.35 183.081,234.5 183.081,232.3 C183.081,230.033 183.547,228 184.481,226.2 C185.414,224.4 186.697,222.867 188.331,221.6 C189.964,220.333 191.864,219.367 194.031,218.7 C196.197,218.033 198.514,217.7 200.981,217.7 C203.581,217.7 205.947,217.983 208.081,218.55 C210.214,219.117 212.047,219.833 213.581,220.7 C215.114,221.567 216.314,222.483 217.181,223.45 C218.047,224.417 218.481,225.333 218.481,226.2 C218.481,227.267 218.247,228.267 217.781,229.2 C217.314,230.133 216.547,230.6 215.481,230.6 C215.014,230.6 214.547,230.417 214.081,230.05 C213.614,229.683 212.947,229.133 212.081,228.4 C210.547,227.2 209.014,226.233 207.481,225.5 C205.947,224.767 203.781,224.367 200.981,224.3 C199.647,224.3 198.364,224.45 197.131,224.75 C195.897,225.05 194.781,225.533 193.781,226.2 C192.781,226.867 191.981,227.683 191.381,228.65 C190.781,229.617 190.481,230.767 190.481,232.1 C190.481,233.3 190.697,234.283 191.131,235.05 C191.564,235.817 192.297,236.517 193.331,237.15 C194.364,237.783 195.731,238.383 197.431,238.95 C199.131,239.517 201.281,240.167 203.881,240.9 C206.147,241.567 208.281,242.283 210.281,243.05 C212.281,243.817 214.014,244.783 215.481,245.95 C216.947,247.117 218.097,248.517 218.931,250.15 C219.764,251.783 220.181,253.833 220.181,256.3 C220.181,258.767 219.614,261 218.481,263 C217.347,265 215.847,266.7 213.981,268.1 C212.114,269.5 210.031,270.583 207.731,271.35 C205.431,272.117 203.081,272.5 200.681,272.5 C197.881,272.5 195.314,272.133 192.981,271.4 C190.647,270.667 188.664,269.767 187.031,268.7 C185.397,267.633 184.131,266.55 183.231,265.45 C182.331,264.35 181.881,263.433 181.881,262.7 C181.881,261.9 182.081,261 182.481,260 C182.881,259 183.614,258.533 184.681,258.6 C185.347,258.6 186.047,258.983 186.781,259.75 C187.514,260.517 188.464,261.333 189.631,262.2 C190.797,263.067 192.297,263.867 194.131,264.6 C195.964,265.333 198.281,265.7 201.081,265.7 M267.877,245.4 C267.877,242.267 267.561,239.4 266.927,236.8 C266.294,234.2 265.327,231.983 264.027,230.15 C262.727,228.317 261.077,226.9 259.077,225.9 C257.077,224.9 254.744,224.4 252.077,224.4 C249.744,224.4 247.661,224.967 245.827,226.1 C243.994,227.233 242.444,228.75 241.177,230.65 C239.911,232.55 238.944,234.783 238.277,237.35 C237.611,239.917 237.277,242.633 237.277,245.5 C237.277,248.367 237.627,251.033 238.327,253.5 C239.027,255.967 240.027,258.117 241.327,259.95 C242.627,261.783 244.161,263.217 245.927,264.25 C247.694,265.283 249.677,265.8 251.877,265.8 C256.944,265.8 260.877,264 263.677,260.4 C266.477,256.8 267.877,251.8 267.877,245.4 M237.477,282.9 C237.477,283.967 237.177,284.9 236.577,285.7 C235.977,286.5 234.944,286.9 233.477,286.9 C232.011,286.833 230.994,286.417 230.427,285.65 C229.861,284.883 229.577,283.967 229.577,282.9 L229.577,222.2 C229.577,221.133 229.877,220.217 230.477,219.45 C231.077,218.683 232.044,218.267 233.377,218.2 C234.711,218.2 235.694,218.6 236.327,219.4 C236.961,220.2 237.277,221.133 237.277,222.2 L237.277,229.5 C238.544,226.1 240.544,223.267 243.277,221 C246.011,218.733 249.377,217.567 253.377,217.5 C256.377,217.5 259.244,218.017 261.977,219.05 C264.711,220.083 267.094,221.733 269.127,224 C271.161,226.267 272.794,229.167 274.027,232.7 C275.261,236.233 275.877,240.467 275.877,245.4 C275.877,249.467 275.344,253.167 274.277,256.5 C273.211,259.833 271.711,262.683 269.777,265.05 C267.844,267.417 265.527,269.25 262.827,270.55 C260.127,271.85 257.144,272.5 253.877,272.5 C249.811,272.5 246.461,271.567 243.827,269.7 C241.194,267.833 239.077,265.167 237.477,261.7 L237.477,282.9 M285.077,200.8 C285.077,199.467 285.361,198.5 285.927,197.9 C286.494,197.3 287.477,197 288.877,197 C290.344,197 291.361,197.317 291.927,197.95 C292.494,198.583 292.777,199.567 292.777,200.9 L292.777,268.5 C292.777,270.833 291.477,272 288.877,272 C286.344,272 285.077,270.833 285.077,268.5 L285.077,200.8 M316.977,268 C316.977,270.667 315.711,272 313.177,272 C310.577,272 309.277,270.667 309.277,268 L309.277,222.4 C309.277,220.867 309.644,219.783 310.377,219.15 C311.111,218.517 312.044,218.2 313.177,218.2 C314.311,218.2 315.227,218.5 315.927,219.1 C316.627,219.7 316.977,220.8 316.977,222.4 L316.977,268 M308.077,205.7 C308.077,204.3 308.561,203.1 309.527,202.1 C310.494,201.1 311.711,200.6 313.177,200.6 C314.577,200.6 315.761,201.1 316.727,202.1 C317.694,203.1 318.177,204.3 318.177,205.7 C318.177,207.1 317.694,208.3 316.727,209.3 C315.761,210.3 314.577,210.8 313.177,210.8 C311.711,210.8 310.494,210.3 309.527,209.3 C308.561,208.3 308.077,207.1 308.077,205.7 M344.071,226.8 L344.071,256.9 C344.071,258.5 344.288,259.933 344.721,261.2 C345.154,262.467 345.888,263.467 346.921,264.2 C347.954,264.933 349.471,265.3 351.471,265.3 C353.004,265.3 354.338,265.067 355.471,264.6 C356.604,264.133 357.704,263.667 358.771,263.2 C359.971,262.667 361.004,262.45 361.871,262.55 C362.738,262.65 363.238,263.267 363.371,264.4 C363.571,265.467 363.288,266.467 362.521,267.4 C361.754,268.333 360.721,269.133 359.421,269.8 C358.121,270.467 356.621,271 354.921,271.4 C353.221,271.8 351.538,272 349.871,272 C347.871,272 346.054,271.783 344.421,271.35 C342.788,270.917 341.371,270.167 340.171,269.1 C338.971,268.033 338.038,266.633 337.371,264.9 C336.704,263.167 336.371,261.033 336.371,258.5 L336.371,226.8 L331.871,226.8 C330.338,226.8 329.371,226.483 328.971,225.85 C328.571,225.217 328.371,224.3 328.371,223.1 C328.371,221.567 328.721,220.583 329.421,220.15 C330.121,219.717 331.071,219.5 332.271,219.5 L336.371,219.5 L336.371,213.7 C336.371,211.7 336.554,210.133 336.921,209 C337.288,207.867 338.438,207.3 340.371,207.3 C342.038,207.3 343.071,207.617 343.471,208.25 C343.871,208.883 344.071,209.9 344.071,211.3 L344.071,219.5 L356.471,219.5 C358.604,219.5 360.154,219.7 361.121,220.1 C362.088,220.5 362.604,221.467 362.671,223 C362.671,224.533 362.154,225.55 361.121,226.05 C360.088,226.55 358.471,226.8 356.271,226.8 L344.071,226.8 Z" style="stroke:none;fill-rule:nonzero;fill:#000000;fill-opacity:1;"/>
        </g>
        <g id="Shape4">
            <desc shapeID="4" type="2" basicInfo-basicType="0" basicInfo-roundedRectRadius="12" basicInfo-polygonSides="6" basicInfo-starPoints="5" bounding="rect(-142.5,-76.5,285,153)" text="split" font-familyName="Yuanti SC" font-pixelSize="100" font-bold="0" font-underline="0" font-alignment="1" strokeStyle="0" markerStart="0" markerEnd="0" shadowEnabled="0" shadowOffsetX="0" shadowOffsetY="2" shadowBlur="4" shadowOpacity="160" blurEnabled="0" blurRadius="4" transform="matrix(1,0,0,1,276.186,232.216)" pers-center="0,0" pers-size="0,0" pers-start="0,0" pers-end="0,0" locked="0" mesh="" flag=""/>
            <path id="shapePath4" d="M203.798,262.8 C206.998,262.8 209.715,261.967 211.948,260.3 C214.182,258.633 215.298,256.5 215.298,253.9 C215.298,252.7 215.115,251.65 214.748,250.75 C214.382,249.85 213.715,249.017 212.748,248.25 C211.782,247.483 210.432,246.75 208.698,246.05 C206.965,245.35 204.732,244.633 201.998,243.9 C199.198,243.167 196.782,242.4 194.748,241.6 C192.715,240.8 191.032,239.867 189.698,238.8 C188.365,237.733 187.382,236.45 186.748,234.95 C186.115,233.45 185.798,231.6 185.798,229.4 C185.798,227.133 186.265,225.1 187.198,223.3 C188.132,221.5 189.415,219.967 191.048,218.7 C192.682,217.433 194.582,216.467 196.748,215.8 C198.915,215.133 201.232,214.8 203.698,214.8 C206.298,214.8 208.665,215.083 210.798,215.65 C212.932,216.217 214.765,216.933 216.298,217.8 C217.832,218.667 219.032,219.583 219.898,220.55 C220.765,221.517 221.198,222.433 221.198,223.3 C221.198,224.367 220.965,225.367 220.498,226.3 C220.032,227.233 219.265,227.7 218.198,227.7 C217.732,227.7 217.265,227.517 216.798,227.15 C216.332,226.783 215.665,226.233 214.798,225.5 C213.265,224.3 211.732,223.333 210.198,222.6 C208.665,221.867 206.498,221.467 203.698,221.4 C202.365,221.4 201.082,221.55 199.848,221.85 C198.615,222.15 197.498,222.633 196.498,223.3 C195.498,223.967 194.698,224.783 194.098,225.75 C193.498,226.717 193.198,227.867 193.198,229.2 C193.198,230.4 193.415,231.383 193.848,232.15 C194.282,232.917 195.015,233.617 196.048,234.25 C197.082,234.883 198.448,235.483 200.148,236.05 C201.848,236.617 203.998,237.267 206.598,238 C208.865,238.667 210.998,239.383 212.998,240.15 C214.998,240.917 216.732,241.883 218.198,243.05 C219.665,244.217 220.815,245.617 221.648,247.25 C222.482,248.883 222.898,250.933 222.898,253.4 C222.898,255.867 222.332,258.1 221.198,260.1 C220.065,262.1 218.565,263.8 216.698,265.2 C214.832,266.6 212.748,267.683 210.448,268.45 C208.148,269.217 205.798,269.6 203.398,269.6 C200.598,269.6 198.032,269.233 195.698,268.5 C193.365,267.767 191.382,266.867 189.748,265.8 C188.115,264.733 186.848,263.65 185.948,262.55 C185.048,261.45 184.598,260.533 184.598,259.8 C184.598,259 184.798,258.1 185.198,257.1 C185.598,256.1 186.332,255.633 187.398,255.7 C188.065,255.7 188.765,256.083 189.498,256.85 C190.232,257.617 191.182,258.433 192.348,259.3 C193.515,260.167 195.015,260.967 196.848,261.7 C198.682,262.433 200.998,262.8 203.798,262.8 M270.595,242.5 C270.595,239.367 270.279,236.5 269.645,233.9 C269.012,231.3 268.045,229.083 266.745,227.25 C265.445,225.417 263.795,224 261.795,223 C259.795,222 257.462,221.5 254.795,221.5 C252.462,221.5 250.379,222.067 248.545,223.2 C246.712,224.333 245.162,225.85 243.895,227.75 C242.629,229.65 241.662,231.883 240.995,234.45 C240.329,237.017 239.995,239.733 239.995,242.6 C239.995,245.467 240.345,248.133 241.045,250.6 C241.745,253.067 242.745,255.217 244.045,257.05 C245.345,258.883 246.879,260.317 248.645,261.35 C250.412,262.383 252.395,262.9 254.595,262.9 C259.662,262.9 263.595,261.1 266.395,257.5 C269.195,253.9 270.595,248.9 270.595,242.5 M240.195,280 C240.195,281.067 239.895,282 239.295,282.8 C238.695,283.6 237.662,284 236.195,284 C234.729,283.933 233.712,283.517 233.145,282.75 C232.579,281.983 232.295,281.067 232.295,280 L232.295,219.3 C232.295,218.233 232.595,217.317 233.195,216.55 C233.795,215.783 234.762,215.367 236.095,215.3 C237.429,215.3 238.412,215.7 239.045,216.5 C239.679,217.3 239.995,218.233 239.995,219.3 L239.995,226.6 C241.262,223.2 243.262,220.367 245.995,218.1 C248.729,215.833 252.095,214.667 256.095,214.6 C259.095,214.6 261.962,215.117 264.695,216.15 C267.429,217.183 269.812,218.833 271.845,221.1 C273.879,223.367 275.512,226.267 276.745,229.8 C277.979,233.333 278.595,237.567 278.595,242.5 C278.595,246.567 278.062,250.267 276.995,253.6 C275.929,256.933 274.429,259.783 272.495,262.15 C270.562,264.517 268.245,266.35 265.545,267.65 C262.845,268.95 259.862,269.6 256.595,269.6 C252.529,269.6 249.179,268.667 246.545,266.8 C243.912,264.933 241.795,262.267 240.195,258.8 L240.195,280 M287.795,197.9 C287.795,196.567 288.079,195.6 288.645,195 C289.212,194.4 290.195,194.1 291.595,194.1 C293.062,194.1 294.079,194.417 294.645,195.05 C295.212,195.683 295.495,196.667 295.495,198 L295.495,265.6 C295.495,267.933 294.195,269.1 291.595,269.1 C289.062,269.1 287.795,267.933 287.795,265.6 L287.795,197.9 M319.695,265.1 C319.695,267.767 318.429,269.1 315.895,269.1 C313.295,269.1 311.995,267.767 311.995,265.1 L311.995,219.5 C311.995,217.967 312.362,216.883 313.095,216.25 C313.829,215.617 314.762,215.3 315.895,215.3 C317.029,215.3 317.945,215.6 318.645,216.2 C319.345,216.8 319.695,217.9 319.695,219.5 L319.695,265.1 M310.795,202.8 C310.795,201.4 311.279,200.2 312.245,199.2 C313.212,198.2 314.429,197.7 315.895,197.7 C317.295,197.7 318.479,198.2 319.445,199.2 C320.412,200.2 320.895,201.4 320.895,202.8 C320.895,204.2 320.412,205.4 319.445,206.4 C318.479,207.4 317.295,207.9 315.895,207.9 C314.429,207.9 313.212,207.4 312.245,206.4 C311.279,205.4 310.795,204.2 310.795,202.8 M346.789,223.9 L346.789,254 C346.789,255.6 347.006,257.033 347.439,258.3 C347.872,259.567 348.606,260.567 349.639,261.3 C350.672,262.033 352.189,262.4 354.189,262.4 C355.722,262.4 357.056,262.167 358.189,261.7 C359.322,261.233 360.422,260.767 361.489,260.3 C362.689,259.767 363.722,259.55 364.589,259.65 C365.456,259.75 365.956,260.367 366.089,261.5 C366.289,262.567 366.006,263.567 365.239,264.5 C364.472,265.433 363.439,266.233 362.139,266.9 C360.839,267.567 359.339,268.1 357.639,268.5 C355.939,268.9 354.256,269.1 352.589,269.1 C350.589,269.1 348.772,268.883 347.139,268.45 C345.506,268.017 344.089,267.267 342.889,266.2 C341.689,265.133 340.756,263.733 340.089,262 C339.422,260.267 339.089,258.133 339.089,255.6 L339.089,223.9 L334.589,223.9 C333.056,223.9 332.089,223.583 331.689,222.95 C331.289,222.317 331.089,221.4 331.089,220.2 C331.089,218.667 331.439,217.683 332.139,217.25 C332.839,216.817 333.789,216.6 334.989,216.6 L339.089,216.6 L339.089,210.8 C339.089,208.8 339.272,207.233 339.639,206.1 C340.006,204.967 341.156,204.4 343.089,204.4 C344.756,204.4 345.789,204.717 346.189,205.35 C346.589,205.983 346.789,207 346.789,208.4 L346.789,216.6 L359.189,216.6 C361.322,216.6 362.872,216.8 363.839,217.2 C364.806,217.6 365.322,218.567 365.389,220.1 C365.389,221.633 364.872,222.65 363.839,223.15 C362.806,223.65 361.189,223.9 358.989,223.9 L346.789,223.9 Z" style="stroke:none;fill-rule:nonzero;fill:#ecf0f1;fill-opacity:1;"/>
        </g>
        <g id="Shape5">
            <desc shapeID="5" type="2" basicInfo-basicType="0" basicInfo-roundedRectRadius="12" basicInfo-polygonSides="6" basicInfo-starPoints="5" bounding="rect(-151.5,-86,303,172)" text="ty" font-familyName="Yuanti SC" font-pixelSize="100" font-bold="0" font-underline="0" font-alignment="1" strokeStyle="0" markerStart="0" markerEnd="0" shadowEnabled="0" shadowOffsetX="0" shadowOffsetY="2" shadowBlur="4" shadowOpacity="160" blurEnabled="0" blurRadius="4" transform="matrix(1,0,0,1,416.827,231.716)" pers-center="0,0" pers-size="0,0" pers-start="0,0" pers-end="0,0" locked="0" mesh="" flag=""/>
            <path id="shapePath5" d="M386.133,223.9 L386.133,254 C386.133,255.6 386.35,257.033 386.783,258.3 C387.217,259.567 387.95,260.567 388.983,261.3 C390.017,262.033 391.533,262.4 393.533,262.4 C395.067,262.4 396.4,262.167 397.533,261.7 C398.667,261.233 399.767,260.767 400.833,260.3 C402.033,259.767 403.067,259.55 403.933,259.65 C404.8,259.75 405.3,260.367 405.433,261.5 C405.633,262.567 405.35,263.567 404.583,264.5 C403.817,265.433 402.783,266.233 401.483,266.9 C400.183,267.567 398.683,268.1 396.983,268.5 C395.283,268.9 393.6,269.1 391.933,269.1 C389.933,269.1 388.117,268.883 386.483,268.45 C384.85,268.017 383.433,267.267 382.233,266.2 C381.033,265.133 380.1,263.733 379.433,262 C378.767,260.267 378.433,258.133 378.433,255.6 L378.433,223.9 L373.933,223.9 C372.4,223.9 371.433,223.583 371.033,222.95 C370.633,222.317 370.433,221.4 370.433,220.2 C370.433,218.667 370.783,217.683 371.483,217.25 C372.183,216.817 373.133,216.6 374.333,216.6 L378.433,216.6 L378.433,210.8 C378.433,208.8 378.617,207.233 378.983,206.1 C379.35,204.967 380.5,204.4 382.433,204.4 C384.1,204.4 385.133,204.717 385.533,205.35 C385.933,205.983 386.133,207 386.133,208.4 L386.133,216.6 L398.533,216.6 C400.667,216.6 402.217,216.8 403.183,217.2 C404.15,217.6 404.667,218.567 404.733,220.1 C404.733,221.633 404.217,222.65 403.183,223.15 C402.15,223.65 400.533,223.9 398.333,223.9 L386.133,223.9 M449.933,256.2 C448.667,259.2 446.7,261.733 444.033,263.8 C441.367,265.867 438.033,266.9 434.033,266.9 C431.567,266.9 429.2,266.533 426.933,265.8 C424.667,265.067 422.683,263.95 420.983,262.45 C419.283,260.95 417.917,259.033 416.883,256.7 C415.85,254.367 415.333,251.6 415.333,248.4 L415.333,218.9 C415.333,216.5 416.567,215.3 419.033,215.3 C421.633,215.3 422.933,216.5 422.933,218.9 L422.933,245.4 C422.933,250.733 424.067,254.5 426.333,256.7 C428.6,258.9 431.733,260 435.733,260 C437.4,260 439.083,259.7 440.783,259.1 C442.483,258.5 444,257.583 445.333,256.35 C446.667,255.117 447.75,253.517 448.583,251.55 C449.417,249.583 449.833,247.2 449.833,244.4 L449.833,218.9 C449.833,216.5 451.1,215.3 453.633,215.3 C454.767,215.3 455.683,215.633 456.383,216.3 C457.083,216.967 457.433,217.833 457.433,218.9 L457.433,266.3 C457.433,269.233 456.867,271.9 455.733,274.3 C454.6,276.7 453,278.767 450.933,280.5 C448.867,282.233 446.35,283.567 443.383,284.5 C440.417,285.433 437.1,285.9 433.433,285.9 C429.633,285.833 426.417,285.333 423.783,284.4 C421.15,283.467 418.6,282.067 416.133,280.2 C415.2,279.467 414.667,278.633 414.533,277.7 C414.4,276.767 414.5,275.8 414.833,274.8 C415.233,273.8 415.883,273.25 416.783,273.15 C417.683,273.05 418.6,273.467 419.533,274.4 C421.133,275.8 423.167,276.917 425.633,277.75 C428.1,278.583 430.833,278.967 433.833,278.9 C438.633,278.767 442.517,277.583 445.483,275.35 C448.45,273.117 449.933,270.1 449.933,266.3 L449.933,256.2 Z" style="stroke:none;fill-rule:nonzero;fill:#f1c40f;fill-opacity:1;"/>
        </g>
    </g>
</svg>
