<?xml version="1.0"?>
<svg version="1.1" xmlns="http://www.w3.org/2000/svg" xmlns:xlink="http://www.w3.org/1999/xlink" width="300" height="120">
    <desc iVinci="yes" version="4.6" gridStep="20" showGrid="no" snapToGrid="no" codePlatform="0"/>
    <g id="Layer1" name="Layer 2" opacity="1">
        <g id="Shape1">
            <desc shapeID="1" type="0" basicInfo-basicType="1" basicInfo-roundedRectRadius="12" basicInfo-polygonSides="6" basicInfo-starPoints="5" bounding="rect(-149,-59,298,118)" text="" font-familyName="Helvetica" font-pixelSize="20" font-bold="0" font-underline="0" font-alignment="1" strokeStyle="0" markerStart="0" markerEnd="0" shadowEnabled="0" shadowOffsetX="0" shadowOffsetY="2" shadowBlur="4" shadowOpacity="160" blurEnabled="0" blurRadius="4" transform="matrix(1,0,0,1,149.5,58.5)" pers-center="0,0" pers-size="0,0" pers-start="0,0" pers-end="0,0" locked="0" mesh="" flag=""/>
            <path id="shapePath1" d="M0.5,-0.5 L298.5,-0.5 L298.5,117.5 L0.5,117.5 L0.5,-0.5 Z" style="stroke:#323232;stroke-opacity:1;stroke-width:1;stroke-linejoin:miter;stroke-miterlimit:2;stroke-linecap:round;fill-rule:evenodd;fill:#000000;fill-opacity:1;"/>
        </g>
        <g id="Shape2">
            <desc shapeID="2" type="0" basicInfo-basicType="1" basicInfo-roundedRectRadius="12" basicInfo-polygonSides="6" basicInfo-starPoints="5" bounding="rect(-250,-115,500,230)" text="" font-familyName="Helvetica" font-pixelSize="20" font-bold="0" font-underline="0" font-alignment="1" strokeStyle="0" markerStart="0" markerEnd="0" shadowEnabled="0" shadowOffsetX="0" shadowOffsetY="2" shadowBlur="4" shadowOpacity="160" blurEnabled="0" blurRadius="4" transform="matrix(1,0,0,1,225.5,97.5)" pers-center="0,0" pers-size="0,0" pers-start="0,0" pers-end="0,0" locked="0" mesh="" flag=""/>
            <path id="shapePath2" d="M-24.5,-17.5 L475.5,-17.5 L475.5,212.5 L-24.5,212.5 L-24.5,-17.5 Z" style="stroke:#323232;stroke-opacity:1;stroke-width:1;stroke-linejoin:miter;stroke-miterlimit:2;stroke-linecap:round;fill-rule:evenodd;fill:#000000;fill-opacity:1;"/>
        </g>
    </g>
    <g id="Layer2" name="Layer 1" opacity="1">
        <g id="Shape3">
            <desc shapeID="3" type="2" basicInfo-basicType="0" basicInfo-roundedRectRadius="12" basicInfo-polygonSides="6" basicInfo-starPoints="5" bounding="rect(-142.5,-76.5,285,153)" text="split" font-familyName="Yuanti SC" font-pixelSize="100" font-bold="0" font-underline="0" font-alignment="1" strokeStyle="0" markerStart="0" markerEnd="0" shadowEnabled="0" shadowOffsetX="0" shadowOffsetY="2" shadowBlur="4" shadowOpacity="160" blurEnabled="0" blurRadius="4" transform="matrix(1,0,0,1,105.468,58.116)" pers-center="0,0" pers-size="0,0" pers-start="0,0" pers-end="0,0" locked="0" mesh="" flag=""/>
            <path id="shapePath3" d="M33.0805,88.7004 C36.2805,88.7004 38.9972,87.867 41.2305,86.2004 C43.4638,84.5337 44.5805,82.4004 44.5805,79.8004 C44.5805,78.6004 44.3972,77.5504 44.0305,76.6504 C43.6638,75.7504 42.9972,74.917 42.0305,74.1504 C41.0638,73.3837 39.7138,72.6504 37.9805,71.9504 C36.2472,71.2504 34.0138,70.5337 31.2805,69.8004 C28.4805,69.067 26.0638,68.3004 24.0305,67.5004 C21.9972,66.7004 20.3138,65.767 18.9805,64.7004 C17.6472,63.6337 16.6638,62.3504 16.0305,60.8504 C15.3972,59.3504 15.0805,57.5004 15.0805,55.3004 C15.0805,53.0337 15.5472,51.0004 16.4805,49.2004 C17.4138,47.4004 18.6972,45.867 20.3305,44.6004 C21.9638,43.3337 23.8638,42.367 26.0305,41.7004 C28.1972,41.0337 30.5138,40.7004 32.9805,40.7004 C35.5805,40.7004 37.9472,40.9837 40.0805,41.5504 C42.2138,42.117 44.0472,42.8337 45.5805,43.7004 C47.1138,44.567 48.3138,45.4837 49.1805,46.4504 C50.0472,47.417 50.4805,48.3337 50.4805,49.2004 C50.4805,50.267 50.2472,51.267 49.7805,52.2004 C49.3138,53.1337 48.5472,53.6004 47.4805,53.6004 C47.0138,53.6004 46.5472,53.417 46.0805,53.0504 C45.6138,52.6837 44.9472,52.1337 44.0805,51.4004 C42.5472,50.2004 41.0138,49.2337 39.4805,48.5004 C37.9472,47.767 35.7805,47.367 32.9805,47.3004 C31.6472,47.3004 30.3638,47.4504 29.1305,47.7504 C27.8972,48.0504 26.7805,48.5337 25.7805,49.2004 C24.7805,49.867 23.9805,50.6837 23.3805,51.6504 C22.7805,52.617 22.4805,53.767 22.4805,55.1004 C22.4805,56.3004 22.6972,57.2837 23.1305,58.0504 C23.5638,58.817 24.2972,59.517 25.3305,60.1504 C26.3638,60.7837 27.7305,61.3837 29.4305,61.9504 C31.1305,62.517 33.2805,63.167 35.8805,63.9004 C38.1472,64.567 40.2805,65.2837 42.2805,66.0504 C44.2805,66.817 46.0138,67.7837 47.4805,68.9504 C48.9472,70.117 50.0972,71.517 50.9305,73.1504 C51.7638,74.7837 52.1805,76.8337 52.1805,79.3004 C52.1805,81.767 51.6138,84.0004 50.4805,86.0004 C49.3472,88.0004 47.8472,89.7004 45.9805,91.1004 C44.1138,92.5004 42.0305,93.5837 39.7305,94.3504 C37.4305,95.117 35.0805,95.5004 32.6805,95.5004 C29.8805,95.5004 27.3138,95.1337 24.9805,94.4004 C22.6472,93.667 20.6638,92.767 19.0305,91.7004 C17.3972,90.6337 16.1305,89.5504 15.2305,88.4504 C14.3305,87.3504 13.8805,86.4337 13.8805,85.7004 C13.8805,84.9004 14.0805,84.0004 14.4805,83.0004 C14.8805,82.0004 15.6138,81.5337 16.6805,81.6004 C17.3472,81.6004 18.0472,81.9837 18.7805,82.7504 C19.5138,83.517 20.4638,84.3337 21.6305,85.2004 C22.7972,86.067 24.2972,86.867 26.1305,87.6004 C27.9638,88.3337 30.2805,88.7004 33.0805,88.7004 M99.8774,68.4004 C99.8774,65.267 99.5607,62.4004 98.9274,59.8004 C98.294,57.2004 97.3274,54.9837 96.0274,53.1504 C94.7274,51.317 93.0774,49.9004 91.0774,48.9004 C89.0774,47.9004 86.744,47.4004 84.0774,47.4004 C81.744,47.4004 79.6607,47.967 77.8274,49.1004 C75.994,50.2337 74.444,51.7504 73.1774,53.6504 C71.9107,55.5504 70.944,57.7837 70.2774,60.3504 C69.6107,62.917 69.2774,65.6337 69.2774,68.5004 C69.2774,71.367 69.6274,74.0337 70.3274,76.5004 C71.0274,78.967 72.0274,81.117 73.3274,82.9504 C74.6274,84.7837 76.1607,86.217 77.9274,87.2504 C79.694,88.2837 81.6774,88.8004 83.8774,88.8004 C88.944,88.8004 92.8774,87.0004 95.6774,83.4004 C98.4774,79.8004 99.8774,74.8004 99.8774,68.4004 M69.4774,105.9 C69.4774,106.967 69.1774,107.9 68.5774,108.7 C67.9774,109.5 66.944,109.9 65.4774,109.9 C64.0107,109.834 62.994,109.417 62.4274,108.65 C61.8607,107.884 61.5774,106.967 61.5774,105.9 L61.5774,45.2004 C61.5774,44.1337 61.8774,43.217 62.4774,42.4504 C63.0774,41.6837 64.044,41.267 65.3774,41.2004 C66.7107,41.2004 67.694,41.6004 68.3274,42.4004 C68.9607,43.2004 69.2774,44.1337 69.2774,45.2004 L69.2774,52.5004 C70.544,49.1004 72.544,46.267 75.2774,44.0004 C78.0107,41.7337 81.3774,40.567 85.3774,40.5004 C88.3774,40.5004 91.244,41.017 93.9774,42.0504 C96.7107,43.0837 99.094,44.7337 101.127,47.0004 C103.161,49.267 104.794,52.167 106.027,55.7004 C107.261,59.2337 107.877,63.467 107.877,68.4004 C107.877,72.467 107.344,76.167 106.277,79.5004 C105.211,82.8337 103.711,85.6837 101.777,88.0504 C99.844,90.417 97.5274,92.2504 94.8274,93.5504 C92.1274,94.8504 89.144,95.5004 85.8774,95.5004 C81.8107,95.5004 78.4607,94.567 75.8274,92.7004 C73.194,90.8337 71.0774,88.167 69.4774,84.7004 L69.4774,105.9 M117.077,23.8004 C117.077,22.467 117.361,21.5004 117.927,20.9004 C118.494,20.3004 119.477,20.0004 120.877,20.0004 C122.344,20.0004 123.361,20.317 123.927,20.9504 C124.494,21.5837 124.777,22.567 124.777,23.9004 L124.777,91.5004 C124.777,93.8337 123.477,95.0004 120.877,95.0004 C118.344,95.0004 117.077,93.8337 117.077,91.5004 L117.077,23.8004 M148.977,91.0004 C148.977,93.667 147.711,95.0004 145.177,95.0004 C142.577,95.0004 141.277,93.667 141.277,91.0004 L141.277,45.4004 C141.277,43.867 141.644,42.7837 142.377,42.1504 C143.111,41.517 144.044,41.2004 145.177,41.2004 C146.311,41.2004 147.227,41.5004 147.927,42.1004 C148.627,42.7004 148.977,43.8004 148.977,45.4004 L148.977,91.0004 M140.077,28.7004 C140.077,27.3004 140.561,26.1004 141.527,25.1004 C142.494,24.1004 143.711,23.6004 145.177,23.6004 C146.577,23.6004 147.761,24.1004 148.727,25.1004 C149.694,26.1004 150.177,27.3004 150.177,28.7004 C150.177,30.1004 149.694,31.3004 148.727,32.3004 C147.761,33.3004 146.577,33.8004 145.177,33.8004 C143.711,33.8004 142.494,33.3004 141.527,32.3004 C140.561,31.3004 140.077,30.1004 140.077,28.7004 M176.071,49.8004 L176.071,79.9004 C176.071,81.5004 176.288,82.9337 176.721,84.2004 C177.154,85.467 177.888,86.467 178.921,87.2004 C179.954,87.9337 181.471,88.3004 183.471,88.3004 C185.004,88.3004 186.338,88.067 187.471,87.6004 C188.604,87.1337 189.704,86.667 190.771,86.2004 C191.971,85.667 193.004,85.4504 193.871,85.5504 C194.738,85.6504 195.238,86.267 195.371,87.4004 C195.571,88.467 195.288,89.467 194.521,90.4004 C193.754,91.3337 192.721,92.1337 191.421,92.8004 C190.121,93.467 188.621,94.0004 186.921,94.4004 C185.221,94.8004 183.538,95.0004 181.871,95.0004 C179.871,95.0004 178.054,94.7837 176.421,94.3504 C174.788,93.917 173.371,93.167 172.171,92.1004 C170.971,91.0337 170.038,89.6337 169.371,87.9004 C168.704,86.167 168.371,84.0337 168.371,81.5004 L168.371,49.8004 L163.871,49.8004 C162.338,49.8004 161.371,49.4837 160.971,48.8504 C160.571,48.217 160.371,47.3004 160.371,46.1004 C160.371,44.567 160.721,43.5837 161.421,43.1504 C162.121,42.717 163.071,42.5004 164.271,42.5004 L168.371,42.5004 L168.371,36.7004 C168.371,34.7004 168.554,33.1337 168.921,32.0004 C169.288,30.867 170.438,30.3004 172.371,30.3004 C174.038,30.3004 175.071,30.617 175.471,31.2504 C175.871,31.8837 176.071,32.9004 176.071,34.3004 L176.071,42.5004 L188.471,42.5004 C190.604,42.5004 192.154,42.7004 193.121,43.1004 C194.088,43.5004 194.604,44.467 194.671,46.0004 C194.671,47.5337 194.154,48.5504 193.121,49.0504 C192.088,49.5504 190.471,49.8004 188.271,49.8004 L176.071,49.8004 Z" style="stroke:none;fill-rule:nonzero;fill:#000000;fill-opacity:1;"/>
        </g>
        <g id="Shape4">
            <desc shapeID="4" type="2" basicInfo-basicType="0" basicInfo-roundedRectRadius="12" basicInfo-polygonSides="6" basicInfo-starPoints="5" bounding="rect(-142.5,-76.5,285,153)" text="split" font-familyName="Yuanti SC" font-pixelSize="100" font-bold="0" font-underline="0" font-alignment="1" strokeStyle="0" markerStart="0" markerEnd="0" shadowEnabled="0" shadowOffsetX="0" shadowOffsetY="2" shadowBlur="4" shadowOpacity="160" blurEnabled="0" blurRadius="4" transform="matrix(1,0,0,1,108.186,55.216)" pers-center="0,0" pers-size="0,0" pers-start="0,0" pers-end="0,0" locked="0" mesh="" flag=""/>
            <path id="shapePath4" d="M35.7985,85.8004 C38.9985,85.8004 41.7152,84.967 43.9485,83.3004 C46.1818,81.6337 47.2985,79.5004 47.2985,76.9004 C47.2985,75.7004 47.1152,74.6504 46.7485,73.7504 C46.3818,72.8504 45.7152,72.017 44.7485,71.2504 C43.7818,70.4837 42.4318,69.7504 40.6985,69.0504 C38.9652,68.3504 36.7318,67.6337 33.9985,66.9004 C31.1985,66.167 28.7818,65.4004 26.7485,64.6004 C24.7152,63.8004 23.0318,62.867 21.6985,61.8004 C20.3652,60.7337 19.3818,59.4504 18.7485,57.9504 C18.1152,56.4504 17.7985,54.6004 17.7985,52.4004 C17.7985,50.1337 18.2652,48.1004 19.1985,46.3004 C20.1318,44.5004 21.4152,42.967 23.0485,41.7004 C24.6818,40.4337 26.5818,39.467 28.7485,38.8004 C30.9152,38.1337 33.2318,37.8004 35.6985,37.8004 C38.2985,37.8004 40.6652,38.0837 42.7985,38.6504 C44.9318,39.217 46.7652,39.9337 48.2985,40.8004 C49.8318,41.667 51.0318,42.5837 51.8985,43.5504 C52.7652,44.517 53.1985,45.4337 53.1985,46.3004 C53.1985,47.367 52.9652,48.367 52.4985,49.3004 C52.0318,50.2337 51.2652,50.7004 50.1985,50.7004 C49.7318,50.7004 49.2652,50.517 48.7985,50.1504 C48.3318,49.7837 47.6652,49.2337 46.7985,48.5004 C45.2652,47.3004 43.7318,46.3337 42.1985,45.6004 C40.6652,44.867 38.4985,44.467 35.6985,44.4004 C34.3652,44.4004 33.0818,44.5504 31.8485,44.8504 C30.6152,45.1504 29.4985,45.6337 28.4985,46.3004 C27.4985,46.967 26.6985,47.7837 26.0985,48.7504 C25.4985,49.717 25.1985,50.867 25.1985,52.2004 C25.1985,53.4004 25.4152,54.3837 25.8485,55.1504 C26.2818,55.917 27.0152,56.617 28.0485,57.2504 C29.0818,57.8837 30.4485,58.4837 32.1485,59.0504 C33.8485,59.617 35.9985,60.267 38.5985,61.0004 C40.8652,61.667 42.9985,62.3837 44.9985,63.1504 C46.9985,63.917 48.7318,64.8837 50.1985,66.0504 C51.6652,67.217 52.8152,68.617 53.6485,70.2504 C54.4818,71.8837 54.8985,73.9337 54.8985,76.4004 C54.8985,78.867 54.3318,81.1004 53.1985,83.1004 C52.0652,85.1004 50.5652,86.8004 48.6985,88.2004 C46.8318,89.6004 44.7485,90.6837 42.4485,91.4504 C40.1485,92.217 37.7985,92.6004 35.3985,92.6004 C32.5985,92.6004 30.0318,92.2337 27.6985,91.5004 C25.3652,90.767 23.3818,89.867 21.7485,88.8004 C20.1152,87.7337 18.8485,86.6504 17.9485,85.5504 C17.0485,84.4504 16.5985,83.5337 16.5985,82.8004 C16.5985,82.0004 16.7985,81.1004 17.1985,80.1004 C17.5985,79.1004 18.3318,78.6337 19.3985,78.7004 C20.0652,78.7004 20.7652,79.0837 21.4985,79.8504 C22.2318,80.617 23.1818,81.4337 24.3485,82.3004 C25.5152,83.167 27.0152,83.967 28.8485,84.7004 C30.6818,85.4337 32.9985,85.8004 35.7985,85.8004 M102.595,65.5004 C102.595,62.367 102.279,59.5004 101.645,56.9004 C101.012,54.3004 100.045,52.0837 98.7454,50.2504 C97.4454,48.417 95.7954,47.0004 93.7954,46.0004 C91.7954,45.0004 89.462,44.5004 86.7954,44.5004 C84.462,44.5004 82.3787,45.067 80.5454,46.2004 C78.712,47.3337 77.162,48.8504 75.8954,50.7504 C74.6287,52.6504 73.662,54.8837 72.9954,57.4504 C72.3287,60.017 71.9954,62.7337 71.9954,65.6004 C71.9954,68.467 72.3454,71.1337 73.0454,73.6004 C73.7454,76.067 74.7454,78.217 76.0454,80.0504 C77.3454,81.8837 78.8787,83.317 80.6454,84.3504 C82.412,85.3837 84.3954,85.9004 86.5954,85.9004 C91.662,85.9004 95.5954,84.1004 98.3954,80.5004 C101.195,76.9004 102.595,71.9004 102.595,65.5004 M72.1954,103 C72.1954,104.067 71.8954,105 71.2954,105.8 C70.6954,106.6 69.662,107 68.1954,107 C66.7287,106.934 65.712,106.517 65.1454,105.75 C64.5787,104.984 64.2954,104.067 64.2954,103 L64.2954,42.3004 C64.2954,41.2337 64.5954,40.317 65.1954,39.5504 C65.7954,38.7837 66.762,38.367 68.0954,38.3004 C69.4287,38.3004 70.412,38.7004 71.0454,39.5004 C71.6787,40.3004 71.9954,41.2337 71.9954,42.3004 L71.9954,49.6004 C73.262,46.2004 75.262,43.367 77.9954,41.1004 C80.7287,38.8337 84.0954,37.667 88.0954,37.6004 C91.0954,37.6004 93.962,38.117 96.6954,39.1504 C99.4287,40.1837 101.812,41.8337 103.845,44.1004 C105.879,46.367 107.512,49.267 108.745,52.8004 C109.979,56.3337 110.595,60.567 110.595,65.5004 C110.595,69.567 110.062,73.267 108.995,76.6004 C107.929,79.9337 106.429,82.7837 104.495,85.1504 C102.562,87.517 100.245,89.3504 97.5454,90.6504 C94.8454,91.9504 91.862,92.6004 88.5954,92.6004 C84.5287,92.6004 81.1787,91.667 78.5454,89.8004 C75.912,87.9337 73.7954,85.267 72.1954,81.8004 L72.1954,103 M119.795,20.9004 C119.795,19.567 120.079,18.6004 120.645,18.0004 C121.212,17.4004 122.195,17.1004 123.595,17.1004 C125.062,17.1004 126.079,17.417 126.645,18.0504 C127.212,18.6837 127.495,19.667 127.495,21.0004 L127.495,88.6004 C127.495,90.9337 126.195,92.1004 123.595,92.1004 C121.062,92.1004 119.795,90.9337 119.795,88.6004 L119.795,20.9004 M151.695,88.1004 C151.695,90.767 150.429,92.1004 147.895,92.1004 C145.295,92.1004 143.995,90.767 143.995,88.1004 L143.995,42.5004 C143.995,40.967 144.362,39.8837 145.095,39.2504 C145.829,38.617 146.762,38.3004 147.895,38.3004 C149.029,38.3004 149.945,38.6004 150.645,39.2004 C151.345,39.8004 151.695,40.9004 151.695,42.5004 L151.695,88.1004 M142.795,25.8004 C142.795,24.4004 143.279,23.2004 144.245,22.2004 C145.212,21.2004 146.429,20.7004 147.895,20.7004 C149.295,20.7004 150.479,21.2004 151.445,22.2004 C152.412,23.2004 152.895,24.4004 152.895,25.8004 C152.895,27.2004 152.412,28.4004 151.445,29.4004 C150.479,30.4004 149.295,30.9004 147.895,30.9004 C146.429,30.9004 145.212,30.4004 144.245,29.4004 C143.279,28.4004 142.795,27.2004 142.795,25.8004 M178.789,46.9004 L178.789,77.0004 C178.789,78.6004 179.006,80.0337 179.439,81.3004 C179.872,82.567 180.606,83.567 181.639,84.3004 C182.672,85.0337 184.189,85.4004 186.189,85.4004 C187.722,85.4004 189.056,85.167 190.189,84.7004 C191.322,84.2337 192.422,83.767 193.489,83.3004 C194.689,82.767 195.722,82.5504 196.589,82.6504 C197.456,82.7504 197.956,83.367 198.089,84.5004 C198.289,85.567 198.006,86.567 197.239,87.5004 C196.472,88.4337 195.439,89.2337 194.139,89.9004 C192.839,90.567 191.339,91.1004 189.639,91.5004 C187.939,91.9004 186.256,92.1004 184.589,92.1004 C182.589,92.1004 180.772,91.8837 179.139,91.4504 C177.506,91.017 176.089,90.267 174.889,89.2004 C173.689,88.1337 172.756,86.7337 172.089,85.0004 C171.422,83.267 171.089,81.1337 171.089,78.6004 L171.089,46.9004 L166.589,46.9004 C165.056,46.9004 164.089,46.5837 163.689,45.9504 C163.289,45.317 163.089,44.4004 163.089,43.2004 C163.089,41.667 163.439,40.6837 164.139,40.2504 C164.839,39.817 165.789,39.6004 166.989,39.6004 L171.089,39.6004 L171.089,33.8004 C171.089,31.8004 171.272,30.2337 171.639,29.1004 C172.006,27.967 173.156,27.4004 175.089,27.4004 C176.756,27.4004 177.789,27.717 178.189,28.3504 C178.589,28.9837 178.789,30.0004 178.789,31.4004 L178.789,39.6004 L191.189,39.6004 C193.322,39.6004 194.872,39.8004 195.839,40.2004 C196.806,40.6004 197.322,41.567 197.389,43.1004 C197.389,44.6337 196.872,45.6504 195.839,46.1504 C194.806,46.6504 193.189,46.9004 190.989,46.9004 L178.789,46.9004 Z" style="stroke:none;fill-rule:nonzero;fill:#ecf0f1;fill-opacity:1;"/>
        </g>
        <g id="Shape5">
            <desc shapeID="5" type="2" basicInfo-basicType="0" basicInfo-roundedRectRadius="12" basicInfo-polygonSides="6" basicInfo-starPoints="5" bounding="rect(-151.5,-86,303,172)" text="ty" font-familyName="Yuanti SC" font-pixelSize="100" font-bold="0" font-underline="0" font-alignment="1" strokeStyle="0" markerStart="0" markerEnd="0" shadowEnabled="0" shadowOffsetX="0" shadowOffsetY="2" shadowBlur="4" shadowOpacity="160" blurEnabled="0" blurRadius="4" transform="matrix(1,0,0,1,248.827,54.716)" pers-center="0,0" pers-size="0,0" pers-start="0,0" pers-end="0,0" locked="0" mesh="" flag=""/>
            <path id="shapePath5" d="M218.133,46.9004 L218.133,77.0004 C218.133,78.6004 218.35,80.0337 218.783,81.3004 C219.217,82.567 219.95,83.567 220.983,84.3004 C222.017,85.0337 223.533,85.4004 225.533,85.4004 C227.067,85.4004 228.4,85.167 229.533,84.7004 C230.667,84.2337 231.767,83.767 232.833,83.3004 C234.033,82.767 235.067,82.5504 235.933,82.6504 C236.8,82.7504 237.3,83.367 237.433,84.5004 C237.633,85.567 237.35,86.567 236.583,87.5004 C235.817,88.4337 234.783,89.2337 233.483,89.9004 C232.183,90.567 230.683,91.1004 228.983,91.5004 C227.283,91.9004 225.6,92.1004 223.933,92.1004 C221.933,92.1004 220.117,91.8837 218.483,91.4504 C216.85,91.017 215.433,90.267 214.233,89.2004 C213.033,88.1337 212.1,86.7337 211.433,85.0004 C210.767,83.267 210.433,81.1337 210.433,78.6004 L210.433,46.9004 L205.933,46.9004 C204.4,46.9004 203.433,46.5837 203.033,45.9504 C202.633,45.317 202.433,44.4004 202.433,43.2004 C202.433,41.667 202.783,40.6837 203.483,40.2504 C204.183,39.817 205.133,39.6004 206.333,39.6004 L210.433,39.6004 L210.433,33.8004 C210.433,31.8004 210.617,30.2337 210.983,29.1004 C211.35,27.967 212.5,27.4004 214.433,27.4004 C216.1,27.4004 217.133,27.717 217.533,28.3504 C217.933,28.9837 218.133,30.0004 218.133,31.4004 L218.133,39.6004 L230.533,39.6004 C232.667,39.6004 234.217,39.8004 235.183,40.2004 C236.15,40.6004 236.667,41.567 236.733,43.1004 C236.733,44.6337 236.217,45.6504 235.183,46.1504 C234.15,46.6504 232.533,46.9004 230.333,46.9004 L218.133,46.9004 M281.933,79.2004 C280.667,82.2004 278.7,84.7337 276.033,86.8004 C273.367,88.867 270.033,89.9004 266.033,89.9004 C263.567,89.9004 261.2,89.5337 258.933,88.8004 C256.667,88.067 254.683,86.9504 252.983,85.4504 C251.283,83.9504 249.917,82.0337 248.883,79.7004 C247.85,77.367 247.333,74.6004 247.333,71.4004 L247.333,41.9004 C247.333,39.5004 248.567,38.3004 251.033,38.3004 C253.633,38.3004 254.933,39.5004 254.933,41.9004 L254.933,68.4004 C254.933,73.7337 256.067,77.5004 258.333,79.7004 C260.6,81.9004 263.733,83.0004 267.733,83.0004 C269.4,83.0004 271.083,82.7004 272.783,82.1004 C274.483,81.5004 276,80.5837 277.333,79.3504 C278.667,78.117 279.75,76.517 280.583,74.5504 C281.417,72.5837 281.833,70.2004 281.833,67.4004 L281.833,41.9004 C281.833,39.5004 283.1,38.3004 285.633,38.3004 C286.767,38.3004 287.683,38.6337 288.383,39.3004 C289.083,39.967 289.433,40.8337 289.433,41.9004 L289.433,89.3004 C289.433,92.2337 288.867,94.9004 287.733,97.3004 C286.6,99.7004 285,101.767 282.933,103.5 C280.867,105.234 278.35,106.567 275.383,107.5 C272.417,108.434 269.1,108.9 265.433,108.9 C261.633,108.834 258.417,108.334 255.783,107.4 C253.15,106.467 250.6,105.067 248.133,103.2 C247.2,102.467 246.667,101.634 246.533,100.7 C246.4,99.767 246.5,98.8004 246.833,97.8004 C247.233,96.8004 247.883,96.2504 248.783,96.1504 C249.683,96.0504 250.6,96.467 251.533,97.4004 C253.133,98.8004 255.167,99.917 257.633,100.75 C260.1,101.584 262.833,101.967 265.833,101.9 C270.633,101.767 274.517,100.584 277.483,98.3504 C280.45,96.117 281.933,93.1004 281.933,89.3004 L281.933,79.2004 Z" style="stroke:none;fill-rule:nonzero;fill:#f1c40f;fill-opacity:1;"/>
        </g>
    </g>
</svg>
